<!-- icon666.com - MILLIONS vector ICONS FREE --><svg version="1.1" id="Layer_1" xmlns="http://www.w3.org/2000/svg" xmlns:xlink="http://www.w3.org/1999/xlink" x="0px" y="0px" viewBox="0 0 512 512" style="enable-background:new 0 0 512 512;" xml:space="preserve"><path style="fill:#E64C3C;" d="M494.345,238.345h-27.277c-8.642-103.027-90.386-184.77-193.412-193.412V17.655 C273.655,7.901,265.754,0,256,0s-17.655,7.901-17.655,17.655v27.277c-103.027,8.642-184.77,90.386-193.412,193.412H17.655 c-4.679,0.018-9.154,1.889-12.447,5.208C1.889,246.846,0.018,251.321,0,256c0,9.754,7.901,17.655,17.655,17.655h27.277 c8.642,103.027,90.386,184.77,193.412,193.412v27.277c0,9.754,7.901,17.655,17.655,17.655s17.655-7.901,17.655-17.655v-27.277 c103.027-8.642,184.77-90.386,193.412-193.412h27.277c9.754,0,17.655-7.901,17.655-17.655S504.099,238.345,494.345,238.345z M238.345,80.331v96.221c-0.044,0.644-0.044,1.298,0,1.942c-29.802,6.78-53.071,30.049-59.851,59.851H80.331 C88.726,154.801,154.801,88.726,238.345,80.331z M238.345,335.448v96.221c-83.544-8.395-149.619-74.47-158.014-158.014h98.163 c6.78,29.802,30.049,53.071,59.851,59.851C238.301,334.151,238.301,334.804,238.345,335.448z M273.655,431.669v-96.221 c0.044-0.644,0.044-1.298,0-1.942c29.802-6.78,53.071-30.049,59.851-59.851h98.163C423.274,357.199,357.199,423.274,273.655,431.669 z M335.448,238.345h-1.942c-6.78-29.802-30.049-53.071-59.851-59.851c0.044-0.644,0.044-1.298,0-1.942V80.331 c83.544,8.395,149.619,74.47,158.014,158.014H335.448z"></path><path style="fill:#FFFFFF;" d="M326.621,247.172h-61.793v-61.793c0-4.873-3.955-8.828-8.828-8.828s-8.828,3.955-8.828,8.828v61.793 h-61.793c-4.873,0-8.828,3.955-8.828,8.828s3.955,8.828,8.828,8.828h61.793v61.793c0,4.873,3.955,8.828,8.828,8.828 s8.828-3.955,8.828-8.828v-61.793h61.793c4.873,0,8.828-3.955,8.828-8.828S331.493,247.172,326.621,247.172z"></path></svg>