<?xml version="1.0" standalone="no"?>
<!DOCTYPE svg PUBLIC "-//W3C//DTD SVG 20010904//EN"
 "http://www.w3.org/TR/2001/REC-SVG-20010904/DTD/svg10.dtd">
<svg version="1.0" xmlns="http://www.w3.org/2000/svg"
 width="1280.000000pt" height="960.000000pt" viewBox="0 0 1280.000000 960.000000"
 preserveAspectRatio="xMidYMid meet">
<metadata>
Created by potrace 1.15, written by Peter Selinger 2001-2017
</metadata>
<g transform="translate(0.000000,960.000000) scale(0.100000,-0.100000)"
fill="#000000" stroke="none">
<path d="M1351 9273 c-12 -10 -28 -36 -35 -58 -17 -49 -40 -54 -141 -30 -84
19 -123 12 -172 -30 l-38 -33 1 -88 c2 -92 16 -157 96 -444 52 -187 272 -938
433 -1480 145 -487 253 -857 285 -980 13 -47 47 -132 76 -190 45 -89 65 -117
136 -186 87 -86 193 -162 318 -229 67 -37 78 -47 111 -105 37 -64 48 -111 83
-350 7 -49 43 -671 56 -975 5 -137 15 -295 20 -350 5 -55 14 -156 20 -225 6
-69 20 -171 31 -228 26 -142 29 -132 -43 -132 -69 0 -127 -14 -231 -53 -95
-37 -131 -68 -169 -145 l-33 -67 1 -155 c0 -133 4 -168 26 -250 53 -197 121
-337 212 -437 93 -103 182 -125 335 -82 179 49 270 121 307 240 14 49 19 93
19 185 l0 122 45 14 45 15 97 -48 c166 -83 571 -239 1138 -438 601 -211 695
-247 1011 -380 119 -50 223 -91 232 -91 12 0 276 -115 285 -125 2 -2 -15 -13
-39 -25 -103 -53 -191 -169 -219 -290 -19 -78 -16 -259 4 -358 67 -322 268
-622 494 -738 74 -38 78 -39 181 -39 100 0 111 2 193 37 203 87 324 199 379
354 17 48 22 83 22 189 1 77 -4 152 -12 183 -17 68 -7 81 46 60 21 -9 102 -23
180 -33 212 -26 334 -13 582 64 102 32 218 72 256 88 39 17 81 34 95 38 66 20
240 118 404 228 l181 122 115 1 c108 1 120 3 201 36 209 85 326 211 365 390
50 232 -52 517 -251 707 -197 187 -415 220 -653 99 -46 -24 -101 -58 -123 -76
l-39 -33 -159 83 -159 83 -5 40 c-7 49 -13 54 -192 157 -727 418 -1113 860
-1260 1439 -30 117 -64 309 -56 309 3 0 131 -38 284 -85 413 -125 428 -129
438 -113 5 7 9 43 9 81 0 37 2 67 4 67 2 0 32 -9 67 -19 104 -31 108 -31 119
-11 6 10 10 31 10 45 0 20 4 26 15 21 9 -3 41 -13 72 -22 54 -16 57 -16 70 2
7 10 13 30 13 45 l0 28 67 -20 c38 -10 71 -19 74 -19 12 0 27 49 22 69 -3 12
-4 21 -2 21 2 0 33 -9 67 -20 87 -27 91 -27 98 21 6 35 10 40 28 35 91 -26
118 -30 127 -15 5 8 9 26 9 42 0 15 1 27 3 27 1 0 31 -9 67 -21 61 -19 65 -19
77 -3 7 10 13 28 13 41 0 27 -4 27 71 6 68 -19 79 -13 79 40 0 15 1 27 3 27 1
0 31 -9 65 -20 35 -11 68 -18 73 -15 4 3 11 21 15 41 5 26 11 33 23 30 9 -3
36 -10 60 -17 39 -12 45 -11 57 6 8 10 14 27 14 37 0 22 0 22 67 1 60 -19 73
-13 73 35 0 26 1 26 70 6 58 -17 70 -12 70 34 0 26 2 26 65 7 55 -16 75 -8 75
31 0 28 2 29 65 8 82 -28 77 -78 70 731 l-7 710 46 660 c25 363 48 690 52 728
5 56 4 67 -9 67 -9 0 -22 12 -29 27 -7 15 -24 33 -38 39 -14 7 -520 107 -1125
224 -605 116 -1343 259 -1640 317 -297 58 -557 108 -577 110 -21 3 -38 9 -38
14 0 5 -18 9 -39 9 -25 0 -41 5 -45 15 -6 17 -37 20 -52 5 -11 -11 -44 -3 -44
11 0 4 -26 7 -58 7 -32 0 -68 4 -79 11 -12 6 -34 11 -48 11 -24 0 -647 118
-651 123 -1 1 -9 36 -19 77 -37 158 -72 188 -246 220 -62 11 -154 20 -204 20
-51 0 -133 3 -183 6 l-92 7 -25 43 c-14 24 -34 48 -45 54 -12 7 -459 10 -1328
10 -1233 0 -1311 -1 -1331 -17z m3227 -286 c40 -21 62 -57 62 -104 0 -10 -61
-13 -272 -13 -150 0 -291 -3 -313 -7 l-40 -6 32 36 c18 20 35 52 39 72 5 29
11 35 38 40 69 11 117 13 261 9 130 -4 156 -8 193 -27z m-3295 -17 c17 0 30
-6 34 -17 3 -10 16 -42 29 -71 l23 -53 -76 3 -77 3 -11 45 c-29 115 -31 104
12 97 21 -4 51 -7 66 -7z m3410 -542 c30 -156 55 -284 54 -284 -3 -3 -211 37
-215 41 -2 1 -25 110 -53 241 -27 132 -52 247 -55 256 -4 15 6 18 88 21 51 1
100 4 109 5 13 2 26 -48 72 -280z m-318 250 c16 -71 95 -461 95 -472 0 -10
-26 -8 -122 10 -68 13 -132 26 -143 28 -18 5 -27 33 -68 218 -26 117 -47 216
-47 220 0 10 45 15 167 17 109 1 113 0 118 -21z m-555 -10 c13 -33 84 -357 79
-362 -8 -8 -174 26 -185 38 -6 6 -26 76 -44 156 -18 80 -35 153 -38 162 -5 19
18 24 116 27 56 1 63 -1 72 -21z m262 -190 c25 -117 45 -214 43 -216 -4 -4
-142 20 -155 28 -6 4 -29 85 -50 181 -22 96 -42 184 -45 197 -5 21 -3 22 78
22 l83 0 46 -212z m-653 56 c19 -80 32 -146 30 -148 -2 -2 -24 2 -49 8 l-45
11 -31 132 -31 132 31 4 c17 2 38 5 47 5 12 2 23 -29 48 -144z m184 -16 c21
-88 35 -163 33 -165 -2 -3 -31 1 -64 7 l-60 12 -32 137 c-17 75 -34 144 -36
154 -5 15 2 17 58 17 l64 0 37 -162z m-562 77 c10 -38 21 -86 24 -106 l6 -36
-82 16 -82 16 -19 80 c-10 43 -16 85 -13 93 3 9 24 12 77 10 l72 -3 17 -70z
m227 -52 c17 -71 30 -129 29 -129 -1 -1 -39 5 -84 13 l-81 15 -21 92 c-12 50
-24 101 -27 114 -6 21 -4 22 74 22 l80 0 30 -127z m1636 118 c8 -13 107 -534
103 -545 -2 -5 -33 110 -70 256 -37 146 -69 273 -73 282 -4 12 -1 16 14 16 12
0 23 -4 26 -9z m-2272 -61 c17 -69 22 -66 -82 -49 l-68 12 -11 43 c-6 23 -11
45 -11 48 0 3 35 6 79 6 l78 0 15 -60z m196 -20 l20 -80 -22 1 c-11 0 -43 6
-70 12 l-50 12 -17 68 -17 67 68 0 68 0 20 -80z m-668 60 c0 -5 -11 -10 -25
-10 -14 0 -25 5 -25 10 0 6 11 10 25 10 14 0 25 -4 25 -10z m243 3 c2 -5 7
-20 11 -35 6 -25 4 -28 -18 -28 -14 0 -28 5 -31 10 -3 6 -24 10 -46 10 -42 0
-99 23 -99 40 0 12 177 14 183 3z m2660 -10 c63 -13 78 -20 82 -37 2 -12 16
-127 30 -256 14 -129 28 -246 30 -259 4 -23 3 -24 -53 -17 -31 4 -61 11 -65
15 -5 5 -31 125 -58 267 -27 143 -51 269 -54 282 -6 26 -10 26 88 5z m223 -46
c1 -1 7 -72 13 -157 6 -85 16 -208 23 -273 6 -64 9 -120 6 -123 -3 -3 -17 -2
-31 1 -22 6 -27 14 -31 48 -10 78 -45 382 -52 451 l-7 69 39 -8 c22 -4 40 -8
40 -8z m-3843 -364 c54 -197 163 -596 243 -888 131 -477 220 -832 211 -842 -7
-6 -164 536 -227 782 -144 556 -327 1258 -336 1288 -3 9 -2 17 3 17 5 0 52
-161 106 -357z m23 333 c1 -1 31 -145 68 -321 37 -176 69 -331 73 -345 3 -14
3 -23 0 -20 -3 3 -46 154 -97 335 -50 182 -94 338 -96 348 -5 15 -1 17 23 11
15 -4 28 -7 29 -8z m3977 -5 c4 -4 12 -115 17 -247 13 -340 17 -303 -26 -294
-19 5 -37 10 -39 12 -2 2 -11 100 -20 218 -9 118 -18 242 -21 274 l-6 59 43
-7 c24 -4 48 -11 52 -15z m-623 -408 c0 -7 -6 -13 -13 -13 -9 0 -26 64 -55
208 -23 114 -42 212 -41 217 1 12 108 -395 109 -412z m-3200 387 c25 -6 54
-12 66 -15 18 -4 22 -15 28 -62 3 -32 13 -98 21 -148 8 -49 37 -238 65 -420
28 -181 53 -341 55 -355 2 -14 29 -189 60 -390 31 -201 72 -464 91 -585 18
-121 33 -224 33 -230 -1 -19 -60 201 -89 335 -28 129 -251 1195 -346 1649 -24
117 -44 218 -44 222 0 11 4 11 60 -1z m3939 4 l31 -6 0 -275 c0 -247 -2 -275
-16 -269 -9 3 -22 6 -29 6 -10 0 -14 45 -19 198 -3 108 -8 232 -11 275 -2 42
-1 77 4 77 5 0 23 -3 40 -6z m131 -298 c0 -269 0 -274 -20 -269 -19 5 -20 14
-20 274 0 262 0 269 20 269 20 0 20 -7 20 -274z m-3828 99 c36 -141 46 -200
83 -500 9 -66 18 -136 20 -155 8 -54 74 -575 95 -750 10 -85 33 -261 49 -390
17 -129 30 -246 30 -260 -1 -19 -136 829 -173 1085 -4 22 -22 141 -41 265 -19
124 -46 299 -60 390 -14 91 -36 234 -49 318 -20 132 -21 153 -8 150 11 -2 27
-49 54 -153z m3908 -115 c0 -173 -4 -270 -10 -270 -6 0 -10 97 -10 270 0 173
4 270 10 270 6 0 10 -97 10 -270z m67 -147 c-1 -76 -3 -14 -3 137 0 151 2 213
3 138 2 -76 2 -200 0 -275z m-3806 375 c12 -10 20 -61 33 -208 9 -107 25 -285
36 -395 22 -224 23 -254 10 -215 -33 98 -102 396 -115 495 -28 219 -36 280
-40 308 -4 25 -2 27 28 27 18 0 40 -6 48 -12z m3876 -395 c-1 -76 -3 -14 -3
137 0 151 2 213 3 138 2 -76 2 -200 0 -275z m80 -16 c-1 -73 -3 -10 -3 138 0
149 2 208 3 132 2 -76 2 -198 0 -270z m-3803 341 c4 -29 15 -183 26 -343 11
-159 29 -416 40 -570 29 -425 32 -475 20 -440 -10 29 -18 106 -60 550 -44 474
-50 542 -55 590 -7 68 -24 248 -25 258 0 4 11 7 24 7 21 0 24 -6 30 -52z
m3883 -5 c-3 -10 -5 -2 -5 17 0 19 2 27 5 18 2 -10 2 -26 0 -35z m80 -366 c-1
-73 -3 -10 -3 138 0 149 2 208 3 132 2 -76 2 -198 0 -270z m73 -141 c-7 -7
-10 75 -10 255 0 146 3 269 8 273 4 4 8 -111 10 -255 1 -168 -1 -266 -8 -273z
m-3815 303 c8 -118 17 -239 20 -269 3 -34 1 -49 -4 -40 -5 8 -16 121 -25 251
-17 257 -19 285 -11 277 3 -3 12 -101 20 -219z m3905 -54 c-1 -159 -5 -265
-11 -265 -5 0 -9 106 -9 265 0 174 4 265 10 265 7 0 10 -90 10 -265z m82 -18
c-2 -144 -6 -264 -7 -266 -2 -1 -8 0 -14 4 -7 4 -11 74 -11 203 0 231 8 332
24 326 8 -3 11 -76 8 -267z m-3786 101 c6 -84 9 -155 8 -156 -1 -2 -7 13 -13
34 -15 54 -26 274 -14 274 5 0 14 -68 19 -152z m3865 -293 c-7 -75 -9 -46 -10
171 0 143 2 264 7 268 11 11 14 -334 3 -439z m-3767 373 c3 -29 8 -96 11 -148
39 -640 39 -637 30 -628 -10 10 -25 172 -40 447 -8 152 -17 300 -20 329 -3 29
-1 52 4 52 5 0 12 -24 15 -52z m3861 -210 c-4 -145 -9 -265 -11 -267 -17 -18
-21 48 -16 272 4 218 7 257 19 257 13 0 14 -34 8 -262z m-3752 128 c3 -66 1
-93 -5 -82 -14 25 -23 204 -10 191 5 -5 12 -55 15 -109z m3839 -138 c-3 -252
-5 -290 -21 -272 -13 15 -1 524 13 524 8 0 10 -69 8 -252z m-4143 17 c6 -104
13 -212 16 -240 2 -27 9 -131 15 -230 5 -99 12 -202 15 -230 2 -30 1 -44 -4
-35 -9 16 -13 61 -36 445 -9 138 -20 306 -25 374 -12 143 -12 153 -1 126 5
-11 14 -105 20 -210z m416 -80 c8 -137 17 -293 20 -345 3 -52 3 -92 0 -89 -11
12 -24 118 -30 253 -4 76 -8 157 -10 180 -12 158 -14 299 -4 276 6 -14 17
-137 24 -275z m3813 38 c-2 -194 -6 -257 -15 -261 -15 -4 -18 208 -6 406 11
201 23 118 21 -145z m-3724 195 c3 -24 8 -83 10 -133 5 -84 4 -88 -8 -50 -16
48 -28 225 -16 225 5 0 11 -19 14 -42z m3818 -195 c-2 -131 -8 -242 -13 -247
-10 -11 -12 328 -3 423 14 126 20 54 16 -176z m91 -15 c-5 -173 -9 -228 -19
-228 -9 0 -11 48 -7 223 5 230 7 257 23 241 5 -5 6 -105 3 -236z m-3798 95 c4
-76 8 -158 10 -183 1 -25 6 -110 9 -190 4 -80 9 -172 12 -205 3 -39 2 -55 -4
-45 -16 25 -22 84 -37 390 -17 343 -18 370 -6 370 5 0 12 -62 16 -137z m110
93 c7 -35 12 -196 6 -196 -9 0 -41 150 -41 192 0 29 3 36 15 32 8 -4 17 -16
20 -28z m3780 -353 c-4 -29 -10 -53 -15 -53 -9 0 -2 408 8 430 9 20 15 -310 7
-377z m-3671 265 c3 -51 10 -190 16 -308 6 -118 13 -249 15 -290 4 -53 2 -70
-5 -58 -17 27 -28 157 -40 443 -6 149 -13 278 -16 288 -3 11 0 17 9 17 12 0
16 -20 21 -92z m3769 -105 c-5 -180 -8 -215 -15 -202 -8 12 4 399 12 399 5 0
6 -83 3 -197z m99 -10 c-3 -131 -7 -183 -15 -183 -9 0 -11 47 -9 177 1 98 5
184 8 192 14 40 19 -21 16 -186z m-3753 80 l-1 -108 -19 75 c-25 103 -25 140
1 140 19 0 20 -6 19 -107z m3854 -40 c-4 -145 -11 -213 -21 -213 -8 0 -4 316
3 338 3 7 9 11 13 8 5 -3 7 -63 5 -133z m98 104 c-1 -4 -1 -74 -1 -157 0 -127
-2 -150 -15 -150 -12 0 -15 19 -15 114 0 129 9 208 22 204 5 -2 9 -7 9 -11z
m-3714 -212 c6 -116 11 -250 11 -300 l0 -90 -24 93 c-18 76 -24 134 -30 304
-7 203 -6 210 12 206 18 -3 20 -20 31 -213z m106 128 c4 -38 6 -95 6 -128 l-1
-60 -14 55 c-8 30 -18 88 -22 128 -7 63 -6 72 9 72 13 0 17 -14 22 -67z m3712
-70 c-7 -135 -10 -152 -20 -141 -9 9 8 278 17 278 6 0 7 -55 3 -137z m-3598
109 c7 -4 11 -40 12 -92 1 -47 5 -193 11 -325 5 -132 9 -278 9 -325 l-1 -85
-22 91 c-18 70 -24 135 -29 280 -4 104 -10 251 -13 327 -6 114 -5 137 7 137 8
0 19 -4 26 -8z m3698 -240 c-12 -12 -13 9 -7 128 l7 125 3 -124 c1 -68 0 -126
-3 -129z m-5286 -20 c7 -92 14 -194 16 -227 7 -79 30 -426 55 -810 11 -170 22
-319 24 -329 3 -12 1 -15 -4 -10 -5 5 -14 43 -19 84 -11 82 -13 109 -41 535
-28 420 -49 730 -55 805 -3 36 -7 99 -10 140 l-5 75 14 -48 c8 -26 19 -123 25
-215z m5397 185 c-3 -33 -6 -82 -6 -108 0 -43 -3 -49 -21 -49 -17 0 -20 4 -15
23 3 12 6 63 6 114 0 88 1 91 21 86 20 -6 21 -11 15 -66z m-3685 53 c5 0 9
-48 8 -107 l-1 -108 -23 100 c-29 121 -30 129 -9 121 9 -3 20 -6 25 -6z m3792
-104 c-3 -50 -6 -92 -7 -92 0 -1 -11 -5 -23 -8 -21 -7 -23 -4 -23 37 0 24 3
71 6 104 6 56 8 59 30 55 22 -4 22 -6 17 -96z m-3662 -116 c4 -107 9 -289 12
-405 l6 -210 -23 100 c-21 88 -25 137 -30 375 -4 151 -9 290 -12 308 -5 31 -3
33 18 30 23 -3 23 -4 29 -198z m3773 157 c-2 -114 -4 -127 -20 -127 -13 0 -14
12 -10 78 3 42 5 79 5 80 1 2 7 2 14 0 6 -3 12 -17 11 -31z m-3660 11 c6 -19
17 -312 12 -307 -10 10 -56 235 -56 275 0 38 3 44 20 44 11 0 22 -6 24 -12z
m3774 -42 c5 -57 -5 -86 -28 -86 -18 0 -20 7 -20 66 0 62 1 65 23 62 18 -2 23
-10 25 -42z m-3648 4 c4 -14 10 -190 14 -390 3 -201 9 -399 12 -440 4 -41 4
-72 0 -69 -3 3 -17 57 -30 120 -22 101 -25 148 -31 409 -3 162 -8 314 -11 337
-3 24 -2 48 1 54 12 18 38 5 45 -21z m3760 -36 c0 -37 -3 -44 -20 -44 -17 0
-20 7 -20 43 0 48 5 58 26 50 9 -3 14 -21 14 -49z m-3642 -76 c16 -90 22 -174
26 -408 4 -162 11 -457 16 -654 5 -198 8 -361 6 -363 -1 -2 -15 52 -30 120
-29 132 -30 163 -52 1116 -8 343 -1 381 34 189z m3762 71 c0 -26 -4 -29 -30
-29 -27 0 -30 3 -30 33 0 32 2 33 30 29 25 -4 30 -9 30 -33z m-4721 -68 c14
-74 17 -108 25 -336 l6 -170 -19 75 c-12 51 -21 131 -25 250 -4 96 -9 198 -12
225 -7 68 10 39 25 -44z m1096 77 c5 -17 16 -512 11 -507 -15 16 -45 239 -50
367 -6 148 -5 152 14 152 12 0 22 -6 25 -12z m3745 -19 c0 -5 -9 -9 -20 -9
-13 0 -18 5 -14 14 6 15 34 11 34 -5z m-3622 -49 c6 -25 13 -207 16 -405 4
-198 9 -434 12 -525 3 -91 3 -162 -1 -158 -25 24 -36 165 -45 572 -12 540 -12
582 -1 571 4 -6 13 -30 19 -55z m121 -85 c17 -71 21 -114 19 -205 l-3 -115
-28 135 c-17 87 -27 166 -27 220 1 99 8 92 39 -35z m288 -136 l1 -194 -28 140
c-16 77 -29 168 -29 202 l-1 61 28 -7 27 -7 2 -195z m134 171 c5 0 8 -77 8
-182 -1 -147 -3 -170 -10 -118 -4 36 -10 81 -13 100 -2 19 -7 64 -11 100 -3
36 -8 76 -11 89 -4 19 -2 22 11 17 9 -3 21 -6 26 -6z m139 -325 c0 -166 3
-351 6 -411 4 -60 4 -106 0 -102 -4 3 -16 120 -26 260 -11 139 -24 307 -29
373 -6 66 -11 136 -11 156 0 34 1 35 30 31 l30 -4 0 -303z m-2200 -10 c19
-320 30 -541 29 -580 l-1 -40 -14 50 c-19 64 -30 186 -43 465 -6 124 -13 268
-15 320 l-5 95 20 -75 c12 -47 23 -136 29 -235z m2321 100 c4 -104 7 -374 8
-598 1 -391 0 -409 -19 -447 -11 -22 -25 -40 -30 -40 -15 0 -12 15 10 52 19
34 19 36 0 618 -11 322 -20 591 -20 598 0 8 9 12 23 10 22 -3 22 -6 28 -193z
m-2736 -140 c22 -383 27 -508 16 -465 -5 19 -17 163 -25 320 -26 467 -27 478
-16 445 5 -16 16 -151 25 -300z m6042 248 c-2 -16 -4 -3 -4 27 0 30 2 43 4 28
2 -16 2 -40 0 -55z m-5402 -403 c8 -173 17 -344 21 -379 7 -79 -9 -75 -24 6
-18 91 -21 132 -32 398 -5 138 -12 295 -15 350 l-4 100 19 -80 c16 -62 24
-151 35 -395z m5275 411 c0 -32 -3 -73 -6 -90 -12 -60 -24 -30 -24 59 0 73 3
90 15 90 12 0 15 -13 15 -59z m-128 -33 c-4 -92 -7 -108 -22 -108 -6 0 -10 29
-10 73 0 82 7 117 24 117 8 0 10 -26 8 -82z m-2875 -794 l-2 -370 -29 -45
c-16 -24 -31 -38 -33 -32 -3 7 7 29 21 50 l26 38 2 615 c1 544 2 586 10 365 4
-137 7 -417 5 -621z m2745 839 c2 -16 2 -58 0 -95 -3 -58 -6 -67 -25 -72 -12
-3 -23 -4 -24 -2 -2 2 -1 47 3 100 6 83 9 96 25 96 12 0 19 -9 21 -27z m-233
-25 c0 -24 -4 -61 -8 -83 -8 -34 -9 -28 -10 43 -1 49 3 82 9 82 6 0 10 -19 9
-42z m-5230 -104 c1 -34 5 -117 10 -185 16 -210 22 -408 11 -374 -14 43 -18
92 -30 345 -6 124 -12 254 -15 290 l-4 65 14 -40 c7 -22 14 -67 14 -101z m991
41 c18 -74 38 -311 38 -435 0 -8 2 -134 6 -280 l6 -265 -24 100 c-22 89 -25
137 -35 450 -6 193 -13 390 -16 440 -4 49 -4 87 -1 85 2 -3 14 -45 26 -95z
m3990 -32 c0 -92 -2 -103 -18 -103 -16 0 -17 9 -14 103 2 56 5 109 8 117 12
36 24 -21 24 -117z m129 45 c-1 -100 -9 -132 -33 -136 -16 -4 -18 0 -12 28 3
18 6 68 6 111 0 72 2 79 20 79 18 0 20 -6 19 -82z m-5515 -64 c37 -538 50
-811 36 -769 -5 17 -17 145 -25 285 -8 140 -17 273 -20 295 -2 22 -7 105 -9
185 -6 156 7 158 18 4z m3264 -669 l-3 -450 -35 -49 c-25 -35 -36 -44 -38 -31
-2 9 3 24 11 33 8 9 23 33 33 52 17 33 19 77 24 645 3 336 6 529 8 430 1 -99
1 -382 0 -630z m1912 681 c0 -109 -1 -114 -22 -119 -12 -4 -24 -4 -26 -2 -6 6
-2 216 4 226 3 5 14 9 25 9 18 0 19 -8 19 -114z m-4014 27 c13 -49 48 -660 39
-671 -1 -1 -12 39 -23 90 -17 74 -22 143 -27 333 -3 132 -8 258 -12 280 -8 56
5 38 23 -32z m3684 -177 c-12 -12 -14 110 -2 194 6 47 7 38 10 -64 2 -73 -1
-123 -8 -130z m111 114 c-7 -97 -8 -104 -9 -45 -2 70 9 189 15 170 1 -6 -1
-62 -6 -125z m-1459 -512 c-3 -377 -8 -639 -14 -648 -7 -11 -8 -8 -4 10 3 14
6 305 6 648 0 342 4 622 8 622 5 0 6 -285 4 -632z m1158 595 c0 -30 -16 -529
-25 -813 -4 -96 -9 -177 -12 -180 -7 -6 4 692 13 888 4 72 11 132 15 132 5 0
9 -12 9 -27z m-210 -573 c-7 -267 -15 -534 -20 -595 l-7 -110 -1 90 c-1 93 26
1186 29 1195 10 21 9 -166 -1 -580z m600 485 c0 -57 -4 -95 -10 -95 -6 0 -10
26 -10 58 0 57 9 132 16 132 2 0 4 -43 4 -95z m-683 63 c-3 -8 -6 -5 -6 6 -1
11 2 17 5 13 3 -3 4 -12 1 -19z m-98 -285 c-22 -1028 -27 -1181 -46 -1217 -9
-16 -35 -57 -59 -90 -42 -57 -44 -59 -44 -30 0 18 11 43 29 65 16 19 39 53 50
75 20 38 21 67 36 744 8 388 15 715 15 728 0 12 6 22 13 22 9 0 11 -63 6 -297z
m-443 -125 c-3 -227 -7 -519 -7 -648 -1 -129 -5 -244 -10 -255 -5 -12 -6 226
-2 585 4 333 8 633 8 668 0 34 4 62 9 62 5 0 6 -168 2 -412z m341 -368 c-10
-497 -16 -661 -26 -678 -19 -35 -25 -19 -13 30 11 43 16 228 28 1003 3 220 9
407 12 415 12 28 12 -111 -1 -770z m-2522 643 c21 -94 25 -155 34 -453 14
-433 14 -425 -15 -310 -21 84 -25 132 -33 405 -6 171 -13 348 -17 395 -3 47
-3 82 1 78 4 -3 17 -55 30 -115z m2350 -375 c-10 -700 -17 -884 -34 -900 -11
-11 -12 -5 -7 38 5 44 25 1001 26 1252 0 59 4 92 11 92 7 0 9 -140 4 -482z
m2465 -348 c-36 -563 -41 -635 -45 -645 -10 -28 -3 518 10 705 8 118 21 319
30 445 8 127 16 241 17 255 2 14 4 -81 6 -210 2 -157 -4 -340 -18 -550z
m-6972 540 c25 -103 44 -210 51 -285 6 -66 20 -214 30 -330 11 -115 27 -284
36 -374 8 -90 13 -166 11 -169 -10 -10 -26 88 -61 368 -20 162 -38 309 -40
325 -6 37 -29 224 -56 445 -11 91 -22 174 -25 185 -4 13 -3 16 3 10 6 -5 28
-84 51 -175z m343 -107 c10 -153 28 -422 39 -598 12 -176 25 -366 28 -422 4
-56 4 -99 0 -95 -7 7 -21 193 -53 697 -8 127 -17 259 -20 295 -23 278 -29 417
-19 407 4 -4 15 -132 25 -284z m2839 -31 c16 -145 30 -285 29 -310 -1 -41 -5
-30 -35 83 -33 127 -33 134 -33 325 1 107 3 188 5 180 2 -8 17 -133 34 -278z
m-270 118 c29 -116 32 -139 35 -340 l5 -215 -40 185 c-36 170 -39 198 -40 344
0 88 2 157 4 155 3 -2 19 -60 36 -129z m-98 -508 c6 -222 9 -405 6 -407 -9 -9
-48 8 -52 24 -2 9 -7 239 -10 511 l-5 495 25 -110 c23 -102 26 -141 36 -513z
m-1212 273 c5 -99 11 -204 14 -234 7 -74 -7 -52 -28 44 -17 76 -36 332 -35
460 l1 60 19 -75 c13 -49 23 -138 29 -255z m965 -342 c8 -390 8 -393 -12 -393
-22 0 -22 -7 -38 775 l-5 230 24 -110 c22 -101 25 -143 31 -502z m1662 540
c-3 -10 -5 -2 -5 17 0 19 2 27 5 18 2 -10 2 -26 0 -35z m-3387 -99 c9 -83 40
-606 40 -676 0 -65 -12 -16 -20 84 -9 99 -40 625 -40 670 0 48 11 5 20 -78z
m-190 -129 c10 -143 16 -234 30 -477 5 -101 12 -208 15 -238 3 -45 2 -50 -6
-30 -12 27 -21 132 -44 520 -8 140 -17 287 -20 325 -4 56 -3 65 6 45 6 -14 14
-79 19 -145z m389 118 c5 -21 15 -141 20 -268 6 -126 13 -264 16 -305 4 -74 4
-74 -10 -35 -7 22 -14 73 -14 114 -1 41 -5 136 -11 210 -13 200 -19 321 -15
321 2 0 9 -17 14 -37z m219 -45 c7 -40 16 -181 22 -313 5 -132 12 -285 15
-340 l5 -100 -15 50 c-10 33 -20 163 -30 380 -8 182 -16 345 -18 363 -6 62 10
32 21 -40z m241 -342 c6 -144 13 -306 16 -361 l4 -100 -18 67 c-18 64 -27 203
-46 698 l-4 105 19 -74 c14 -55 22 -140 29 -335z m349 -111 c5 -149 9 -271 7
-273 -2 -2 -12 36 -23 85 -23 100 -30 185 -37 463 l-5 195 24 -100 c20 -85 26
-144 34 -370z m206 353 c13 -60 20 -173 28 -401 5 -175 8 -320 5 -323 -2 -2
-11 -2 -19 1 -13 5 -17 41 -23 213 -3 114 -9 294 -13 400 -4 105 -4 192 -1
192 3 0 14 -37 23 -82z m2985 -503 c-10 -418 -13 -446 -58 -505 -32 -41 -33
-17 -2 41 l29 54 11 435 c6 239 12 455 13 480 1 34 3 27 9 -30 4 -41 3 -255
-2 -475z m-812 433 c-2 -13 -4 -5 -4 17 -1 22 1 32 4 23 2 -10 2 -28 0 -40z
m-3767 -104 c25 -350 49 -768 46 -772 -6 -5 -14 65 -21 178 -8 142 -34 542
-41 650 -3 52 -3 92 0 89 4 -4 11 -69 16 -145z m1834 26 c20 -94 26 -155 31
-332 5 -178 4 -218 -7 -218 -35 1 -37 13 -43 295 -3 154 -8 302 -11 330 -8 77
3 50 30 -75z m2934 -515 c-8 -279 -11 -315 -30 -355 -17 -39 -21 -42 -28 -25
-4 12 -2 31 7 49 12 23 18 123 29 475 7 245 14 451 16 456 9 42 13 -348 6
-600z m-2172 389 c16 -67 16 -72 -2 -110 l-19 -39 -7 50 c-3 28 -7 84 -7 125
-1 88 10 80 35 -26z m246 -108 c-7 -15 -10 9 -10 84 l1 105 9 -84 c6 -54 6
-92 0 -105z m-1567 -126 c3 -74 8 -164 10 -199 3 -39 1 -61 -5 -55 -19 20 -39
178 -43 354 l-5 185 19 -75 c11 -44 21 -130 24 -210z m1179 106 l26 -130 -22
-23 c-12 -13 -24 -23 -28 -23 -3 0 -7 71 -9 157 -1 87 0 155 2 153 3 -3 17
-63 31 -134z m-1929 -186 c17 -298 17 -313 6 -306 -5 3 -12 59 -16 123 -4 65
-8 136 -10 158 -2 22 -6 105 -9 185 -4 108 -3 137 5 115 6 -16 17 -140 24
-275z m3864 -7 c0 -242 -6 -278 -55 -351 -53 -77 -163 -192 -164 -170 0 9 15
29 33 45 38 32 115 131 143 183 16 31 19 67 23 300 5 303 20 298 20 -7z
m-3649 -58 c13 -232 14 -218 -9 -206 -16 9 -19 29 -25 188 -3 98 -8 214 -11
258 l-4 80 19 -75 c13 -48 24 -137 30 -245z m200 145 c14 -101 21 -340 9 -340
-19 0 -27 50 -33 216 -4 93 -9 194 -11 224 l-4 55 15 -45 c8 -25 19 -74 24
-110z m-1212 5 c-1 -35 -2 -33 -8 15 -5 30 -8 71 -8 90 1 28 2 25 8 -15 5 -27
8 -68 8 -90z m605 -185 c13 -230 13 -260 3 -249 -6 7 -25 262 -30 419 -9 237
12 109 27 -170z m1886 198 c20 -125 19 -162 -1 -166 -16 -3 -18 7 -18 111 0
64 -3 123 -7 133 -4 10 -2 15 4 11 5 -3 15 -43 22 -89z m-1070 -14 c10 -44 22
-132 25 -196 7 -113 6 -118 -13 -118 -17 0 -20 9 -25 83 -9 135 -15 319 -10
314 3 -2 13 -40 23 -83z m1714 21 c-37 -46 -42 -26 -6 24 17 24 29 34 31 26 2
-8 -9 -30 -25 -50z m-257 7 c-17 -16 -18 -16 -5 5 7 12 15 20 18 17 3 -2 -3
-12 -13 -22z m424 -42 c0 -19 -11 -42 -31 -65 -37 -42 -48 -44 -41 -7 4 22 58
102 69 102 2 0 3 -13 3 -30z m-1510 -212 c0 -30 -11 -41 -34 -32 -14 5 -16 26
-15 133 l1 126 24 -100 c13 -55 24 -112 24 -127z m225 41 c5 -31 3 -37 -14
-42 -11 -2 -22 -2 -25 1 -3 3 -6 55 -5 116 l1 111 18 -75 c10 -41 22 -91 25
-111z m875 144 c0 -5 -13 -17 -28 -27 l-27 -19 24 26 c26 28 31 32 31 20z
m246 -41 c-17 -17 -26 -22 -26 -12 0 19 44 64 48 50 3 -7 -7 -24 -22 -38z
m-2726 -171 c12 -191 12 -221 1 -201 -10 16 -32 277 -30 362 1 97 17 7 29
-161z m3298 145 c-13 -20 -26 -36 -30 -36 -4 0 5 18 20 39 34 48 42 46 10 -3z
m140 -77 c-31 -47 -48 -60 -48 -40 0 19 75 118 78 104 2 -8 -11 -37 -30 -64z
m-968 52 c0 -5 -7 -12 -16 -15 -24 -9 -28 -7 -14 9 14 17 30 20 30 6z m675
-46 c-20 -25 -39 -44 -42 -41 -3 3 12 26 32 51 21 25 40 43 43 41 3 -3 -12
-26 -33 -51z m453 -56 c-21 -28 -23 -29 -26 -10 -2 12 7 43 20 69 l23 48 3
-38 c2 -27 -3 -46 -20 -69z m-848 76 c0 -16 -6 -25 -15 -25 -18 0 -20 21 -3
38 17 17 18 16 18 -13z m140 18 c0 -14 -54 -63 -69 -63 -10 0 -3 12 19 35 32
33 50 43 50 28z m-1046 -45 c-11 -17 -44 -8 -44 11 0 17 3 18 24 8 13 -7 22
-15 20 -19z m1189 5 c-3 -10 -18 -28 -34 -41 -24 -19 -29 -21 -29 -7 0 15 47
64 62 65 3 0 4 -8 1 -17z m258 -56 c-19 -18 -30 -25 -26 -17 13 25 48 60 54
55 3 -3 -10 -20 -28 -38z m448 -79 c-18 -22 -35 -36 -37 -30 -3 11 5 30 43 90
l20 32 3 -25 c2 -17 -8 -39 -29 -67z m-4322 40 c-3 -7 -5 -2 -5 12 0 14 2 19
5 13 2 -7 2 -19 0 -25z m3733 2 c-46 -38 -60 -39 -18 0 18 16 38 29 43 29 6 0
-6 -13 -25 -29z m294 -17 c-17 -20 -36 -39 -44 -41 -7 -3 4 16 25 41 21 26 41
44 44 42 2 -3 -9 -22 -25 -42z m-2200 31 c18 -7 12 -24 -10 -24 -8 0 -14 7
-14 15 0 17 2 18 24 9z m1637 -46 c-24 -18 -51 -24 -51 -10 0 11 54 40 64 34
5 -3 -1 -13 -13 -24z m419 -33 c-13 -14 -27 -22 -32 -19 -5 4 3 19 19 36 15
16 29 24 31 18 2 -6 -6 -22 -18 -35z m-305 25 c-3 -5 -11 -10 -16 -10 -6 0 -7
5 -4 10 3 6 11 10 16 10 6 0 7 -4 4 -10z m-2500 -47 c4 -21 3 -33 -4 -33 -6 0
-11 11 -11 24 0 13 -3 33 -6 43 -5 12 -4 15 3 8 6 -5 14 -25 18 -42z m425 37
c0 -5 -4 -10 -9 -10 -6 0 -13 5 -16 10 -3 6 1 10 9 10 9 0 16 -4 16 -10z
m3000 -14 c0 -13 -13 -40 -30 -61 -27 -34 -30 -36 -30 -14 0 19 45 99 56 99 2
0 4 -11 4 -24z m-309 -4 c-11 -21 -41 -48 -41 -38 0 4 7 18 16 31 19 29 40 34
25 7z m-2901 -12 c0 -5 -4 -10 -10 -10 -5 0 -10 5 -10 10 0 6 5 10 10 10 6 0
10 -4 10 -10z m2760 -7 c0 -35 -52 -68 -73 -46 -7 6 51 62 66 63 4 0 7 -8 7
-17z m-445 -3 c-3 -5 -12 -10 -18 -10 -7 0 -6 4 3 10 19 12 23 12 15 0z m125
2 c0 -5 -11 -14 -25 -20 -29 -13 -33 -5 -7 14 20 15 32 18 32 6z m-2850 -49
c0 -7 -4 -13 -10 -13 -5 0 -10 12 -10 28 0 21 2 24 10 12 5 -8 10 -21 10 -27z
m3442 -26 c-17 -17 -35 -28 -38 -24 -4 4 8 23 27 43 19 19 35 30 38 23 2 -6
-10 -25 -27 -42z m-570 11 c-6 -6 -15 -8 -19 -4 -4 4 -1 11 7 16 19 12 27 3
12 -12z m-3867 -9 c10 -30 0 -33 -13 -4 -6 14 -7 25 -2 25 5 0 12 -9 15 -21z
m3995 17 c0 -2 -7 -7 -16 -10 -8 -3 -12 -2 -9 4 6 10 25 14 25 6z m-3190 -26
c0 -5 -4 -10 -10 -10 -5 0 -10 5 -10 10 0 6 5 10 10 10 6 0 10 -4 10 -10z
m3210 -25 c0 -8 -7 -15 -15 -15 -26 0 -18 20 13 29 1 1 2 -6 2 -14z m126 -21
c-11 -8 -27 -14 -35 -14 -9 0 -3 8 14 19 34 21 50 17 21 -5z m-3952 -19 c58
-21 126 -38 169 -41 40 -4 95 -15 122 -25 28 -11 61 -19 73 -19 13 0 90 -25
170 -56 81 -31 183 -62 227 -69 44 -8 105 -21 135 -31 99 -29 154 -46 200 -59
25 -8 83 -27 130 -44 47 -17 98 -31 115 -31 16 0 59 -11 95 -24 36 -13 90 -29
120 -36 30 -6 73 -18 95 -25 22 -7 74 -23 115 -35 41 -12 86 -26 100 -32 14
-6 41 -14 60 -18 19 -5 60 -18 90 -30 30 -12 78 -28 105 -36 28 -8 68 -20 90
-26 22 -7 60 -20 85 -31 25 -10 63 -22 85 -27 183 -40 302 -75 392 -116 29
-13 83 -26 120 -30 37 -4 84 -15 103 -25 20 -9 54 -21 75 -25 22 -3 54 -14 70
-22 17 -8 46 -19 65 -23 19 -5 59 -16 87 -26 l53 -18 0 -57 0 -56 -47 14 c-27
8 -529 159 -1118 336 -588 176 -1077 326 -1086 334 -8 8 -29 14 -46 14 -28 0
-1083 311 -1112 328 -11 6 -39 77 -41 100 0 4 9 2 104 -33z m4397 -18 c-27
-27 -31 -29 -31 -12 0 21 53 69 59 53 2 -6 -11 -24 -28 -41z m355 -5 c-35 -51
-114 -127 -123 -119 -4 4 14 29 39 55 25 26 58 64 74 86 35 48 45 28 10 -22z
m-476 23 c0 -8 -7 -15 -15 -15 -16 0 -20 12 -8 23 11 12 23 8 23 -8z m676 -59
c-38 -56 -93 -112 -84 -86 3 8 30 48 59 88 60 81 81 80 25 -2z m-1277 50 c-10
-8 -73 -16 -64 -7 6 5 21 11 35 13 25 4 37 1 29 -6z m556 -46 c-3 -5 -10 -10
-16 -10 -5 0 -9 5 -9 10 0 6 7 10 16 10 8 0 12 -4 9 -10z m-980 -30 c-3 -5
-16 -10 -28 -10 -18 0 -19 2 -7 10 20 13 43 13 35 0z m1876 -75 c-23 -30 -44
-55 -46 -55 -14 0 0 32 37 85 31 43 44 55 46 42 2 -10 -15 -43 -37 -72z m-851
55 c0 -5 -10 -10 -22 -10 -19 0 -20 2 -8 10 19 13 30 13 30 0z m-3768 -176
c328 -99 424 -132 416 -141 -12 -15 1 -270 38 -733 34 -422 59 -622 121 -950
4 -25 3 -26 -257 -94 -143 -38 -262 -67 -264 -65 -4 4 -17 243 -41 749 -20
414 -46 688 -84 865 -49 228 -68 259 -211 337 -98 53 -231 142 -264 177 l-29
30 74 -22 c41 -13 266 -81 501 -153z m2618 172 c0 -2 -13 -6 -30 -8 -16 -3
-30 -1 -30 4 0 4 14 8 30 8 17 0 30 -2 30 -4z m1295 -6 c-3 -6 -19 -17 -36
-25 -23 -12 -29 -13 -29 -2 0 7 5 18 12 25 15 15 62 16 53 2z m365 2 c0 -14
-59 -66 -67 -59 -3 4 6 21 22 37 28 30 45 38 45 22z m174 -83 c-35 -35 -64
-50 -64 -32 0 4 21 29 48 56 35 36 48 44 50 31 2 -9 -13 -34 -34 -55z m-694
21 c0 -5 -6 -10 -14 -10 -8 0 -21 -3 -30 -6 -9 -3 -16 -1 -16 4 0 9 9 13 53
21 4 0 7 -3 7 -9z m330 -5 c-2 -15 -48 -40 -57 -31 -4 4 3 16 17 26 26 20 43
22 40 5z m-1863 -1 c-3 -3 -12 -4 -19 -1 -8 3 -5 6 6 6 11 1 17 -2 13 -5z
m940 -10 c-3 -3 -12 -4 -19 -1 -8 3 -5 6 6 6 11 1 17 -2 13 -5z m-1060 -10
c-3 -3 -12 -4 -19 -1 -8 3 -5 6 6 6 11 1 17 -2 13 -5z m2056 -25 c-40 -27 -53
-23 -19 6 17 13 34 21 39 18 5 -3 -4 -14 -20 -24z m90 -30 c-40 -27 -53 -23
-19 6 17 13 34 21 39 18 5 -3 -4 -14 -20 -24z m-2393 11 c0 -5 -8 -10 -17 -10
-15 0 -16 2 -3 10 19 12 20 12 20 0z m2040 -11 c-14 -4 -32 -7 -39 -8 -21 -1
-1 16 24 21 30 7 43 -5 15 -13z m-585 -9 c-3 -5 -16 -10 -28 -10 -18 0 -19 2
-7 10 20 13 43 13 35 0z m-1582 -7 c-7 -2 -19 -2 -25 0 -7 3 -2 5 12 5 14 0
19 -2 13 -5z m2017 -13 c-20 -13 -53 -13 -45 0 3 6 18 10 33 10 21 0 24 -2 12
-10z m-580 -10 c0 -5 -15 -10 -32 -9 -28 0 -30 2 -13 9 28 12 45 12 45 0z
m1310 -10 c0 -15 -48 -42 -61 -34 -8 5 -4 13 12 25 26 20 49 25 49 9z m-2973
-6 c-3 -3 -12 -4 -19 -1 -8 3 -5 6 6 6 11 1 17 -2 13 -5z m1518 -14 c-3 -5
-13 -10 -21 -10 -8 0 -12 5 -9 10 3 6 13 10 21 10 8 0 12 -4 9 -10z m1219 1
c6 -9 -111 -37 -120 -28 -3 3 11 9 32 13 22 3 46 10 54 15 19 11 28 11 34 0z
m416 -41 c13 -8 12 -11 -5 -24 -22 -17 -35 -19 -60 -9 -15 5 -15 8 6 24 27 21
38 23 59 9z m-613 -6 c-3 -3 -12 -4 -19 -1 -8 3 -5 6 6 6 11 1 17 -2 13 -5z
m243 -9 c0 -9 -9 -15 -24 -15 -35 0 -42 18 -9 23 16 2 29 5 31 6 1 0 2 -6 2
-14z m-1665 -25 c-3 -5 -12 -7 -20 -3 -21 7 -19 13 6 13 11 0 18 -4 14 -10z
m1252 -6 c-3 -3 -12 -4 -19 -1 -8 3 -5 6 6 6 11 1 17 -2 13 -5z m290 0 c-10
-11 -79 -22 -96 -16 -13 5 -11 8 9 13 31 9 95 11 87 3z m327 -23 c-13 -12 -70
-21 -79 -13 -3 4 13 12 37 18 45 11 58 10 42 -5z m-2014 -1 c-20 -13 -40 -13
-40 0 0 6 12 10 28 10 21 0 24 -2 12 -10z m547 4 c-3 -3 -12 -4 -19 -1 -8 3
-5 6 6 6 11 1 17 -2 13 -5z m-692 -34 c-27 -12 -35 -12 -35 0 0 6 12 10 28 9
24 0 25 -1 7 -9z m2321 1 c-7 -10 -66 -20 -66 -11 0 13 14 20 42 20 16 0 27
-4 24 -9z m-3917 -40 c69 -22 218 -67 331 -101 113 -34 261 -79 330 -100 69
-21 373 -113 675 -205 303 -92 600 -182 661 -201 l111 -34 5 -188 c3 -103 5
-188 3 -190 -1 -1 -146 -41 -321 -87 -176 -47 -393 -105 -484 -129 -462 -125
-1267 -336 -1277 -336 -14 0 -17 9 -37 115 -54 281 -91 628 -121 1143 -16 279
-18 352 -9 352 4 0 63 -18 133 -39z m3561 29 c0 -5 -15 -10 -32 -9 -28 0 -30
2 -13 9 28 12 45 12 45 0z m-1575 -20 c-3 -5 -10 -10 -16 -10 -5 0 -9 5 -9 10
0 6 7 10 16 10 8 0 12 -4 9 -10z m1035 0 c0 -5 -7 -10 -15 -10 -8 0 -15 5 -15
10 0 6 7 10 15 10 8 0 15 -4 15 -10z m2323 -107 c-15 -29 -31 -53 -35 -53 -18
0 -6 56 25 110 32 59 32 59 35 27 3 -21 -6 -50 -25 -84z m140 0 c-25 -42 -28
-45 -31 -25 -2 13 9 50 25 82 l28 59 3 -34 c2 -24 -6 -49 -25 -82z m-4113 97
c0 -5 -7 -10 -15 -10 -8 0 -15 5 -15 10 0 6 7 10 15 10 8 0 15 -4 15 -10z
m2064 1 c6 -10 -92 -27 -101 -18 -6 6 51 25 79 26 9 1 19 -3 22 -8z m284 0
c10 -6 4 -10 -18 -15 -44 -8 -60 -8 -60 3 0 5 12 12 28 14 15 2 29 5 32 5 3 1
11 -2 18 -7z m1475 -104 c-28 -42 -28 -42 -31 -15 -2 17 8 46 25 75 l28 48 3
-33 c2 -24 -5 -46 -25 -75z m-1256 87 c-3 -3 -12 -4 -19 -1 -8 3 -5 6 6 6 11
1 17 -2 13 -5z m-1364 -11 c-7 -2 -19 -2 -25 0 -7 3 -2 5 12 5 14 0 19 -2 13
-5z m2507 -2 c0 -5 -18 -28 -40 -52 l-39 -44 -1 36 c0 38 11 53 45 62 32 8 35
7 35 -2z m-3330 -11 c-20 -13 -40 -13 -40 0 0 6 12 10 28 10 21 0 24 -2 12
-10z m1810 0 c0 -5 -6 -10 -12 -10 -7 0 -30 -3 -50 -6 -24 -4 -38 -3 -38 4 0
10 27 17 78 21 12 0 22 -3 22 -9z m2083 -171 c-1 -100 -3 -182 -5 -184 -2 -1
-13 1 -25 6 -22 8 -23 13 -23 136 0 113 2 134 22 175 13 26 25 47 28 48 3 0 4
-81 3 -181z m-3223 151 c-20 -13 -53 -13 -45 0 3 6 18 10 33 10 21 0 24 -2 12
-10z m300 0 c0 -5 -14 -10 -31 -10 -17 0 -28 4 -24 10 3 6 17 10 31 10 13 0
24 -4 24 -10z m-1110 -10 c-36 -11 -52 -11 -45 0 3 6 21 10 38 9 31 -1 31 -1
7 -9z m2330 0 c0 -5 -4 -10 -9 -10 -5 0 -24 -2 -42 -5 l-34 -5 35 14 c43 18
50 19 50 6z m-554 -9 c-8 -12 -63 -22 -83 -14 -15 6 -14 8 7 14 37 10 82 10
76 0z m287 2 c-7 -2 -19 -2 -25 0 -7 3 -2 5 12 5 14 0 19 -2 13 -5z m1206 -19
c-13 -14 -25 -20 -27 -14 -7 20 7 40 29 40 l22 0 -24 -26z m-2299 7 c0 -9 -52
-22 -60 -15 -7 7 23 24 43 24 9 0 17 -4 17 -9z m-1190 -21 c0 -5 -7 -10 -16
-10 -8 0 -12 5 -9 10 3 6 10 10 16 10 5 0 9 -4 9 -10z m2379 -4 c-2 -2 -22 -7
-44 -11 -47 -9 -41 4 7 14 31 7 46 6 37 -3z m-599 -6 c0 -5 -4 -10 -10 -10 -5
0 -10 5 -10 10 0 6 5 10 10 10 6 0 10 -4 10 -10z m320 0 c-14 -4 -36 -8 -50
-8 -23 -1 -23 0 -5 8 11 5 34 8 50 8 29 0 29 0 5 -8z m-1075 -10 c-3 -5 -17
-10 -31 -10 -13 0 -24 5 -24 10 0 6 14 10 31 10 17 0 28 -4 24 -10z m930 -20
c3 -5 -3 -10 -14 -10 -10 0 -26 -3 -35 -6 -9 -3 -16 -1 -16 4 0 6 10 13 23 15
12 2 25 5 29 6 4 0 10 -3 13 -9z m563 1 c10 -6 7 -10 -13 -15 -27 -7 -45 -1
-45 15 0 11 40 12 58 0z m-1188 -11 c0 -5 -9 -10 -19 -10 -11 0 -23 5 -26 10
-4 6 5 10 19 10 14 0 26 -4 26 -10z m295 0 c-3 -5 -13 -10 -21 -10 -8 0 -14 5
-14 10 0 6 9 10 21 10 11 0 17 -4 14 -10z m545 0 c0 -5 -4 -10 -10 -10 -5 0
-10 5 -10 10 0 6 5 10 10 10 6 0 10 -4 10 -10z m-1670 -10 c0 -5 -6 -10 -14
-10 -8 0 -21 -3 -30 -6 -9 -3 -16 -1 -16 4 0 9 9 13 53 21 4 0 7 -3 7 -9z
m2700 -9 c0 -11 -49 -21 -55 -11 -2 4 -2 10 2 14 10 9 53 7 53 -3z m180 -1 c0
-5 -5 -10 -11 -10 -5 0 -7 5 -4 10 3 6 8 10 11 10 2 0 4 -4 4 -10z m-2190 -10
c0 -5 -3 -10 -7 -10 -5 0 -18 -3 -30 -6 -13 -4 -23 -2 -23 4 0 10 19 18 48 21
6 0 12 -3 12 -9z m590 0 c0 -5 -6 -10 -14 -10 -8 0 -21 -3 -30 -6 -9 -3 -16
-1 -16 4 0 9 9 13 53 21 4 0 7 -3 7 -9z m270 0 c-8 -5 -26 -9 -40 -9 l-25 1
25 8 c14 4 32 8 40 9 13 1 13 0 0 -9z m309 1 c10 -7 1 -11 -32 -16 -49 -8 -79
1 -56 16 18 11 70 11 88 0z m1331 -7 c0 -8 -5 -12 -10 -9 -6 4 -8 11 -5 16 9
14 15 11 15 -7z m-165 -4 c10 -16 -43 -36 -58 -21 -9 9 -9 14 3 21 20 13 47
13 55 0z m-2895 -9 c0 -10 -24 -21 -46 -21 -20 0 -17 18 4 23 29 8 42 7 42 -2z
m3210 -16 c0 -18 -5 -25 -20 -25 -24 0 -25 8 -3 32 21 23 23 23 23 -7z m-1667
-16 c-7 -7 -24 -8 -43 -4 -35 8 -30 21 10 27 31 5 48 -8 33 -23z m845 22 c10
-6 8 -10 -9 -14 -26 -7 -34 -3 -24 12 7 13 15 14 33 2z m-1980 -6 c-10 -10
-68 -24 -68 -16 0 15 13 21 43 21 17 0 28 -2 25 -5z m292 -4 c0 -10 -61 -24
-69 -16 -8 9 21 25 47 25 12 0 22 -4 22 -9z m285 -1 c-3 -5 -18 -10 -33 -9
-24 0 -25 1 -7 9 28 12 47 12 40 0z m292 4 c-3 -3 -12 -4 -19 -1 -8 3 -5 6 6
6 11 1 17 -2 13 -5z m578 -4 c3 -5 1 -10 -4 -10 -6 0 -11 5 -11 10 0 6 2 10 4
10 3 0 8 -4 11 -10z m1479 -41 c-17 -18 -44 -26 -44 -12 0 4 12 20 28 36 22
23 28 25 30 12 2 -9 -4 -25 -14 -36z m-1254 37 c0 -2 -7 -6 -15 -10 -8 -3 -15
-1 -15 4 0 6 7 10 15 10 8 0 15 -2 15 -4z m963 -14 c10 -5 -23 -31 -40 -32
-13 0 -18 32 -7 43 5 5 27 0 47 -11z m-293 -6 c0 -16 -26 -24 -55 -18 -16 4
-13 7 15 18 19 7 36 13 38 13 1 1 2 -5 2 -13z m737 -92 c-8 -8 -57 15 -57 26
0 6 12 27 28 46 l27 34 3 -51 c2 -28 1 -53 -1 -55z m-3717 86 c0 -5 -2 -10 -4
-10 -3 0 -8 5 -11 10 -3 6 -1 10 4 10 6 0 11 -4 11 -10z m1634 1 c11 -4 15
-10 10 -13 -21 -13 -72 -18 -95 -10 -24 10 -23 10 11 20 43 12 50 13 74 3z
m836 -1 c13 -9 13 -10 0 -10 -8 0 -25 -3 -37 -6 -13 -4 -23 -2 -23 4 0 9 12
15 40 21 3 0 12 -4 20 -9z m-1705 -10 c-3 -5 -13 -10 -21 -10 -8 0 -14 5 -14
10 0 6 9 10 21 10 11 0 17 -4 14 -10z m572 4 c-3 -3 -12 -4 -19 -1 -8 3 -5 6
6 6 11 1 17 -2 13 -5z m587 -3 c3 -5 -8 -11 -25 -13 -30 -5 -49 6 -27 15 21 9
46 8 52 -2z m229 -8 c-7 -2 -19 -2 -25 0 -7 3 -2 5 12 5 14 0 19 -2 13 -5z
m987 -34 c0 -22 -16 -24 -57 -8 l-28 11 30 13 c35 15 55 10 55 -16z m250 22
c0 -6 -4 -13 -10 -16 -5 -3 -10 1 -10 9 0 9 5 16 10 16 6 0 10 -4 10 -9z
m-1080 -11 c8 -5 10 -10 4 -10 -6 0 -26 -3 -43 -6 -19 -4 -31 -2 -31 4 0 6 10
13 23 15 12 2 24 5 27 5 3 1 12 -3 20 -8z m507 -4 c-10 -8 -27 -11 -38 -9 -27
7 -5 23 31 23 23 -1 24 -2 7 -14z m-2577 -6 c0 -5 -2 -10 -4 -10 -3 0 -8 5
-11 10 -3 6 -1 10 4 10 6 0 11 -4 11 -10z m350 0 c0 -5 -4 -10 -10 -10 -5 0
-10 5 -10 10 0 6 5 10 10 10 6 0 10 -4 10 -10z m300 6 c0 -2 -7 -6 -15 -10 -8
-3 -15 -1 -15 4 0 6 7 10 15 10 8 0 15 -2 15 -4z m876 -5 c-3 -4 -20 -11 -37
-15 -39 -7 -64 5 -29 15 37 10 72 10 66 0z m-1261 -11 c3 -5 -1 -10 -10 -10
-9 0 -13 5 -10 10 3 6 8 10 10 10 2 0 7 -4 10 -10z m-350 -10 c3 -5 1 -10 -4
-10 -6 0 -11 5 -11 10 0 6 2 10 4 10 3 0 8 -4 11 -10z m1993 -9 c10 -6 8 -10
-10 -14 -34 -10 -58 -8 -58 2 0 5 10 12 23 14 12 2 24 5 27 5 3 1 11 -2 18 -7z
m522 0 c0 -11 -30 -19 -49 -13 -11 4 -11 6 0 13 18 11 49 11 49 0z m310 -11
c0 -23 -7 -24 -45 -10 -33 12 -24 30 16 30 22 0 29 -5 29 -20z m-1755 0 c3 -6
-4 -10 -17 -10 -18 0 -20 2 -8 10 19 12 18 12 25 0z m380 1 c-15 -15 -95 -26
-95 -13 0 10 27 17 80 21 15 0 20 -3 15 -8z m1685 0 c0 -10 -51 -22 -64 -14
-4 3 -2 9 5 14 18 11 59 11 59 0z m-2650 -11 c0 -5 -10 -10 -22 -9 -22 0 -22
1 -3 9 11 5 21 9 23 9 1 1 2 -3 2 -9z m290 6 c0 -3 -4 -8 -10 -11 -5 -3 -10
-1 -10 4 0 6 5 11 10 11 6 0 10 -2 10 -4z m1060 -25 c0 -12 -25 -21 -58 -21
-42 0 -4 24 46 29 6 0 12 -3 12 -8z m508 -2 c-2 -6 -7 -10 -11 -10 -4 1 -15 1
-24 1 -15 0 -16 2 -3 10 20 13 43 13 38 -1z m332 -9 c0 -22 -16 -25 -57 -9
-22 8 -24 12 -13 19 8 6 27 10 43 10 20 0 27 -5 27 -20z m-1125 0 c-11 -5 -31
-8 -45 -8 l-25 0 25 8 c14 4 34 8 45 8 l20 1 -20 -9z m1435 1 c0 -11 -51 -21
-64 -13 -5 3 -1 9 10 13 27 11 54 11 54 0z m554 -1 c16 -6 26 -17 26 -29 0
-18 -3 -19 -30 -10 -19 7 -30 18 -30 30 0 22 0 22 34 9z m-3181 -7 c-7 -2 -19
-2 -25 0 -7 3 -2 5 12 5 14 0 19 -2 13 -5z m267 3 c0 -2 -9 -6 -20 -9 -11 -3
-20 -1 -20 4 0 5 9 9 20 9 11 0 20 -2 20 -4z m600 -6 c0 -5 -9 -10 -21 -10
-11 0 -17 5 -14 10 3 6 13 10 21 10 8 0 14 -4 14 -10z m730 -14 c0 -2 -7 -6
-15 -10 -8 -3 -15 -1 -15 4 0 6 7 10 15 10 8 0 15 -2 15 -4z m220 -11 c0 -9
-6 -12 -16 -8 -13 5 -13 7 -2 14 17 11 18 11 18 -6z m340 -6 c0 -18 -4 -20
-32 -14 -46 10 -55 17 -32 26 38 15 64 10 64 -12z m-1740 -3 c0 -18 -49 -31
-64 -16 -8 8 -7 13 4 20 23 15 60 12 60 -4z m605 4 c-11 -5 -29 -8 -40 -8 -16
0 -15 2 5 8 34 11 60 11 35 0z m255 0 c0 -5 -12 -10 -27 -10 -22 0 -25 2 -13
10 20 13 40 13 40 0z m1200 1 c0 -9 -33 -21 -57 -21 -19 0 -15 18 5 23 30 8
52 7 52 -2z m564 -1 c16 -6 26 -17 26 -29 0 -18 -3 -19 -30 -10 -19 7 -30 18
-30 30 0 22 0 22 34 9z m-2334 -10 c0 -5 -12 -10 -27 -10 -22 0 -25 2 -13 10
20 13 40 13 40 0z m450 -26 c0 -8 -73 -22 -88 -17 -11 5 -4 10 24 18 34 10 64
10 64 -1z m275 7 c-12 -11 -75 -25 -75 -17 0 3 15 10 33 15 43 12 53 13 42 2z
m565 -11 c0 -23 -8 -24 -47 -9 -26 10 -27 12 -8 19 35 15 55 11 55 -10z
m-1144 1 c-3 -5 -17 -11 -32 -14 -29 -5 -20 9 11 16 11 3 21 5 23 6 2 0 1 -3
-2 -8z m1464 0 c0 -11 -25 -21 -51 -21 -26 0 -24 18 4 23 39 8 47 7 47 -2z
m584 -1 c34 -13 37 -51 4 -43 -23 5 -48 29 -48 45 0 11 13 10 44 -2z m-2714
-15 c10 -13 9 -15 -8 -15 -22 0 -36 13 -25 24 10 10 20 7 33 -9z m1640 -25 c0
-11 -3 -20 -7 -20 -20 0 -53 13 -53 20 0 7 10 11 53 19 4 0 7 -8 7 -19z m-840
0 c0 -5 -4 -10 -10 -10 -5 0 -10 5 -10 10 0 6 5 10 10 10 6 0 10 -4 10 -10z
m260 0 c-14 -4 -34 -8 -45 -8 l-20 -1 20 9 c11 5 31 8 45 8 l25 0 -25 -8z
m240 0 c0 -5 -4 -10 -10 -10 -5 0 -10 5 -10 10 0 6 5 10 10 10 6 0 10 -4 10
-10z m665 -9 c-3 -6 -18 -11 -33 -11 -29 0 -20 15 13 22 24 5 29 3 20 -11z
m624 -6 c18 -18 6 -34 -22 -28 -30 8 -47 22 -47 40 0 18 47 10 69 -12z m-2096
8 c-7 -2 -19 -2 -25 0 -7 3 -2 5 12 5 14 0 19 -2 13 -5z m-353 -13 c0 -5 -4
-10 -10 -10 -5 0 -10 5 -10 10 0 6 5 10 10 10 6 0 10 -4 10 -10z m1070 -16 c0
-2 -7 -4 -15 -4 -8 0 -15 4 -15 10 0 5 7 7 15 4 8 -4 15 -8 15 -10z m-310 -3
c-25 -14 -76 -24 -65 -13 10 10 38 19 65 21 13 0 13 -1 0 -8z m570 -6 c0 -17
-4 -18 -39 -8 -23 6 -23 7 -5 14 30 12 44 10 44 -6z m945 1 c35 -15 48 -46 21
-46 -33 0 -66 20 -66 40 0 24 1 24 45 6z m-2525 -17 c19 -5 69 -18 110 -29 41
-12 98 -26 125 -31 28 -6 69 -17 91 -27 40 -15 42 -19 48 -66 3 -27 4 -52 1
-54 -2 -2 -109 27 -237 66 l-233 69 -3 46 -3 47 33 -6 c18 -4 49 -10 68 -15z
m1920 12 c0 -11 -30 -19 -49 -13 -11 4 -11 6 0 13 18 11 49 11 49 0z m-774
-30 c-3 -5 -22 -12 -41 -15 -41 -8 -70 3 -39 15 27 11 86 11 80 0z m264 -11
c0 -14 -5 -18 -17 -13 -33 12 -37 16 -17 24 30 12 34 10 34 -11z m966 4 c17
-4 24 -13 24 -30 0 -22 -1 -23 -37 -10 -27 9 -39 20 -41 36 -3 18 0 21 13 16
9 -3 28 -9 41 -12z m-626 -9 c0 -9 -9 -15 -25 -15 -31 0 -33 17 -2 23 12 2 23
5 25 6 1 0 2 -6 2 -14z m-963 -1 c-3 -3 -12 -4 -19 -1 -8 3 -5 6 6 6 11 1 17
-2 13 -5z m187 -23 c3 -5 -4 -11 -17 -15 -33 -9 -57 -7 -57 3 0 17 65 27 74
12z m1266 -38 c0 -27 2 -26 -39 -12 -23 8 -31 17 -31 34 0 22 2 23 35 12 27
-8 35 -16 35 -34z m-1585 27 c-3 -5 -11 -10 -16 -10 -6 0 -7 5 -4 10 3 6 11
10 16 10 6 0 7 -4 4 -10z m676 0 c6 0 7 -4 4 -10 -10 -16 -45 -12 -45 6 0 11
5 14 16 10 9 -3 20 -6 25 -6z m247 -11 c-2 -6 -7 -10 -11 -10 -4 1 -15 1 -24
1 -15 0 -16 2 -3 10 20 13 43 13 38 -1z m-778 -29 c0 -5 -4 -10 -9 -10 -6 0
-13 5 -16 10 -3 6 1 10 9 10 9 0 16 -4 16 -10z m345 -4 l30 -12 -42 -11 c-41
-10 -113 2 -113 19 0 19 84 22 125 4z m914 3 c32 -11 45 -49 17 -49 -33 0 -66
20 -66 40 0 23 5 24 49 9z m-649 -14 c0 -8 -9 -15 -20 -15 -25 0 -26 17 -2 23
9 3 18 5 20 6 1 0 2 -6 2 -14z m-1340 -49 c350 -106 320 -94 320 -125 0 -33
44 -279 66 -366 104 -419 280 -747 553 -1029 42 -43 71 -77 66 -75 -27 10
-314 159 -415 215 l-115 65 3 105 c5 134 -15 226 -75 346 -53 106 -144 206
-219 241 -41 18 -65 22 -144 21 -60 0 -110 -6 -136 -16 l-41 -16 -13 91 c-7
51 -15 206 -17 344 l-5 253 28 -10 c16 -5 81 -25 144 -44z m536 13 c27 -12 69
-35 94 -50 26 -16 71 -33 101 -39 30 -6 72 -18 94 -27 22 -8 60 -15 85 -14 25
0 59 -4 75 -10 17 -5 59 -17 95 -28 l65 -19 8 -57 c5 -31 7 -59 5 -60 -6 -6
-643 187 -654 199 -11 10 -29 126 -20 126 2 0 25 -10 52 -21z m1290 5 c17 -4
24 -13 24 -31 0 -19 -4 -24 -16 -19 -9 3 -27 9 -40 12 -17 4 -24 13 -24 31 0
19 4 24 16 19 9 -3 27 -9 40 -12z m-1008 -23 c3 -10 -2 -11 -19 -6 -39 12 -48
27 -15 23 16 -2 31 -9 34 -17z m97 9 c3 -5 -1 -10 -9 -10 -8 0 -18 5 -21 10
-3 6 1 10 9 10 8 0 18 -4 21 -10z m744 -31 c23 -8 31 -17 31 -36 0 -21 -3 -23
-22 -17 -57 17 -68 25 -68 44 0 23 13 25 59 9z m-621 -8 c10 -6 8 -10 -10 -14
-33 -10 -58 -8 -58 2 0 9 19 17 45 20 6 0 16 -3 23 -8z m437 -35 c31 -11 41
-20 43 -39 3 -25 2 -25 -37 -15 -23 6 -41 16 -41 23 0 8 -3 20 -6 29 -7 19 -9
19 41 2z m-150 -56 c17 -7 25 -17 25 -34 l0 -25 -60 21 c-33 11 -60 26 -60 33
0 26 35 28 95 5z m-1645 -391 c0 -26 -3 -30 -17 -24 -10 4 -45 9 -78 13 l-60
5 60 18 c88 25 95 25 95 -12z m-9 -154 c42 -22 44 -43 7 -113 -28 -54 -38 -64
-71 -73 -21 -5 -44 -12 -52 -15 -8 -4 -32 27 -69 87 -30 51 -53 95 -51 97 2 2
34 12 72 23 71 19 118 17 164 -6z m-251 -126 c29 -49 49 -93 46 -97 -6 -6
-213 -71 -227 -72 -7 0 -109 175 -109 187 0 7 194 68 227 72 6 0 35 -40 63
-90z m-304 -94 c29 -50 50 -92 48 -95 -3 -2 -55 -19 -116 -37 -86 -25 -114
-30 -120 -20 -28 42 -99 179 -95 183 8 9 202 63 216 61 8 -1 38 -43 67 -92z
m-300 -87 c36 -64 49 -95 41 -100 -20 -10 -237 -71 -240 -67 -14 17 -108 191
-106 194 7 6 244 73 248 69 2 -2 28 -45 57 -96z m-320 -88 c31 -56 55 -102 53
-104 -2 -2 -55 -18 -117 -36 -132 -39 -117 -45 -186 82 l-46 87 57 16 c53 15
175 52 180 54 1 1 27 -44 59 -99z m1129 70 c3 -5 1 -10 -4 -10 -6 0 -11 5 -11
10 0 6 2 10 4 10 3 0 8 -4 11 -10z m-45 -76 c18 -30 39 -58 46 -61 8 -3 14
-13 14 -22 0 -12 -24 -23 -91 -43 l-90 -27 -53 26 c-38 18 -60 38 -79 70 -19
31 -23 45 -14 48 49 18 205 64 219 64 10 1 29 -21 48 -55z m-1391 -85 c29 -55
51 -102 49 -104 -5 -5 -243 -75 -255 -75 -10 0 -118 199 -112 204 4 3 249 74
259 75 3 1 29 -44 59 -100z m1081 -4 c18 -32 44 -62 61 -71 16 -8 27 -18 25
-23 -3 -4 -49 -20 -102 -36 l-97 -29 -52 28 c-39 20 -59 39 -76 71 -13 24 -21
46 -19 47 7 5 203 66 217 67 6 0 26 -24 43 -54z m-1413 -99 c30 -54 53 -99 51
-101 -2 -1 -29 -10 -60 -19 -32 -9 -64 -19 -72 -22 -17 -7 -35 24 -75 134
l-29 79 46 16 c26 8 55 15 65 14 13 -1 37 -35 74 -101z m-688 65 c-25 -16 -56
-41 -67 -56 -84 -107 -28 -288 116 -372 35 -21 62 -27 122 -31 66 -4 92 0 180
27 56 18 104 30 107 28 9 -10 93 -161 93 -168 0 -4 -66 -29 -147 -54 -82 -26
-196 -62 -255 -81 -59 -19 -115 -34 -123 -34 -20 0 -109 66 -151 111 -51 55
-109 227 -138 409 -13 85 -22 157 -20 159 4 4 305 90 319 90 6 0 -11 -12 -36
-28z m1803 -61 c21 -38 43 -64 61 -71 15 -6 27 -14 27 -18 0 -4 -48 -22 -106
-41 l-105 -34 -57 29 c-43 23 -63 41 -81 73 -13 24 -22 45 -20 46 5 4 230 74
241 75 4 1 22 -26 40 -59z m-1458 -98 l55 -109 -89 -26 c-49 -15 -110 -27
-136 -27 -110 0 -193 87 -154 161 13 24 60 45 175 80 50 15 91 27 92 28 2 1
27 -48 57 -107z m1144 -2 c21 -38 44 -66 64 -76 l31 -16 -107 -35 -108 -35
-52 28 c-40 21 -60 39 -80 76 -15 26 -26 48 -24 49 2 0 50 15 108 34 58 18
112 34 120 34 8 0 29 -26 48 -59z m-309 -95 c24 -44 43 -68 63 -76 16 -7 25
-15 21 -19 -4 -5 -59 -24 -120 -43 l-113 -35 -52 32 c-49 29 -102 97 -95 120
2 7 232 83 257 85 3 1 20 -28 39 -64z m1364 24 c34 -17 76 -44 92 -59 17 -15
51 -43 77 -63 l47 -35 -70 -26 c-39 -14 -75 -26 -80 -26 -6 0 -85 39 -177 87
l-166 87 95 32 c51 18 100 33 107 33 7 1 41 -13 75 -30z m-1702 -121 c17 -35
37 -66 43 -70 55 -33 54 -35 -19 -57 -39 -12 -77 -24 -86 -27 -12 -3 -31 18
-68 77 -29 45 -49 85 -44 89 6 6 108 42 140 49 2 1 17 -27 34 -61z m1507 -34
l165 -87 -114 -40 -113 -40 -106 56 c-226 120 -235 126 -220 131 75 28 189 65
204 65 10 1 93 -38 184 -85z m1291 -133 l154 -84 -97 -38 -98 -38 -289 141
c-159 78 -289 145 -289 148 0 4 18 12 39 19 22 6 65 25 95 41 l56 29 138 -67
c76 -37 207 -105 291 -151z m-1617 27 l170 -91 -110 -39 -111 -39 -165 93
c-91 51 -163 95 -160 98 4 4 150 54 203 69 1 1 80 -40 173 -91z m1477 -223
c-8 -7 -194 -75 -207 -75 -14 0 -571 285 -585 299 -5 5 38 24 95 43 l103 35
299 -149 c164 -82 297 -151 295 -153z m-1790 120 c88 -49 161 -92 161 -95 0
-3 -54 -24 -119 -46 l-119 -42 -154 90 c-84 49 -159 93 -167 97 -9 6 27 22
105 49 65 22 122 40 126 39 3 -1 79 -42 167 -92z m1195 -81 c157 -82 285 -151
286 -154 0 -6 -209 -83 -225 -83 -13 0 -585 306 -585 313 0 9 205 79 222 75
10 -1 146 -70 302 -151z m-1497 -56 c68 -40 120 -75 115 -79 -4 -4 -43 -19
-87 -34 -44 -15 -84 -31 -89 -36 -5 -5 -1 -20 9 -36 l18 -28 -24 16 c-13 8
-104 64 -202 123 -98 60 -175 111 -172 114 4 4 57 23 118 43 l112 36 40 -24
c22 -13 95 -56 162 -95z m1286 -123 c91 -49 167 -93 167 -96 0 -3 -48 -25
-106 -47 l-106 -41 -251 140 c-139 78 -272 153 -297 167 l-45 25 110 38 110
37 125 -67 c69 -36 201 -106 293 -156z m1503 43 c173 -89 310 -165 306 -169
-4 -3 -42 -20 -84 -38 l-77 -31 -327 163 -327 163 94 37 c52 20 96 36 98 37 2
0 145 -73 317 -162z m-1973 -75 c133 -75 261 -148 285 -161 24 -13 42 -25 40
-27 -2 -1 -58 -23 -125 -49 l-121 -46 -197 115 c-108 63 -239 140 -292 171
l-96 57 119 43 c65 23 125 41 132 38 7 -2 122 -65 255 -141z m1698 -35 c175
-90 319 -165 319 -168 0 -3 -47 -24 -104 -47 l-104 -42 -315 162 c-173 89
-315 167 -317 172 -1 9 168 83 194 84 5 1 152 -72 327 -161z m-3199 110 c44
-64 216 -244 287 -302 39 -32 70 -60 68 -62 -5 -6 -210 65 -457 159 -245 92
-280 107 -280 116 1 5 329 117 352 120 4 1 17 -14 30 -31z m720 -265 c211
-130 454 -279 540 -332 86 -53 155 -97 154 -99 -2 -1 -86 37 -187 86 -317 152
-586 318 -786 483 -104 86 -119 99 -111 99 4 0 179 -106 390 -237z m470 47
c150 -89 277 -165 281 -170 5 -4 -24 -20 -65 -35 -94 -36 -100 -40 -86 -70 6
-13 17 -26 25 -29 7 -3 63 13 123 35 l109 41 315 -187 c174 -103 316 -190 316
-193 0 -7 -192 -89 -229 -99 -12 -3 -243 132 -670 392 -359 219 -650 399 -648
401 10 11 233 82 244 79 7 -3 135 -77 285 -165z m1657 6 c333 -175 361 -190
361 -196 0 -6 -210 -93 -224 -93 -12 0 -625 329 -639 342 -6 6 189 88 217 90
5 1 133 -64 285 -143z m-281 -156 c289 -158 318 -176 299 -186 -12 -7 -62 -28
-112 -48 l-90 -37 -317 178 c-175 97 -318 180 -318 184 0 6 200 88 211 85 4 0
151 -80 327 -176z m-321 -127 c172 -97 313 -180 313 -183 0 -4 -55 -30 -121
-58 l-121 -51 -319 186 c-176 103 -316 190 -312 194 11 10 214 88 232 89 8 0
155 -80 328 -177z m2101 -309 c12 -44 24 -87 27 -95 6 -15 -139 -88 -1059
-532 l-288 -139 -56 39 c-31 21 -70 52 -86 69 -155 159 -161 166 -146 176 8 5
366 171 795 368 l780 359 6 -82 c3 -45 15 -118 27 -163z m219 -393 c38 -46 49
-33 -117 -136 -269 -168 -632 -312 -840 -333 -52 -6 -96 -9 -98 -7 -4 4 1000
514 1013 515 6 0 25 -18 42 -39z"/>
</g>
</svg>
