<!-- icon666.com - MILLIONS vector ICONS FREE --><svg id="Layer_1" viewBox="0 0 512 512" xmlns="http://www.w3.org/2000/svg" data-name="Layer 1"><path d="m437.019 74.981a256 256 0 1 0 -362.038 362.038 256 256 0 1 0 362.038-362.038zm-22.627 339.411a224 224 0 1 1 65.608-158.392 222.536 222.536 0 0 1 -65.608 158.392zm-74.954-219.2-60.811 60.808 60.811 60.811a16 16 0 1 1 -22.626 22.627l-60.812-60.811-60.811 60.811a16 16 0 1 1 -22.626-22.627l60.811-60.811-60.811-60.811a16 16 0 1 1 22.626-22.627l60.811 60.811 60.812-60.811a16 16 0 1 1 22.626 22.627z" fill="#000000" style="fill: rgb(255, 0, 0);"></path></svg>