<?xml version="1.0" standalone="no"?>
<!DOCTYPE svg PUBLIC "-//W3C//DTD SVG 20010904//EN"
 "http://www.w3.org/TR/2001/REC-SVG-20010904/DTD/svg10.dtd">
<svg version="1.0" xmlns="http://www.w3.org/2000/svg"
 width="746.000000pt" height="1280.000000pt" viewBox="0 0 746.000000 1280.000000"
 preserveAspectRatio="xMidYMid meet">
<g transform="translate(0.000000,1280.000000) scale(0.100000,-0.100000)"
fill="#000000" stroke="none">
<path d="M6473 12763 c-16 -3 -23 -11 -23 -28 0 -44 40 -152 78 -211 87 -134
213 -194 407 -194 l85 0 0 53 c0 161 -122 316 -288 367 -61 19 -194 26 -259
13z"/>
<path d="M6243 12703 c-90 -109 -165 -234 -149 -250 3 -3 34 0 70 7 94 17 166
-4 166 -50 0 -32 76 -135 152 -205 82 -76 154 -123 245 -161 97 -40 230 -31
271 19 9 11 2 16 -41 27 -174 44 -330 133 -457 260 -104 103 -156 191 -180
300 -6 30 -15 68 -19 85 l-7 29 -51 -61z"/>
<path d="M7178 12368 c-7 -13 -14 -71 -16 -132 l-4 -108 23 7 c42 13 65 29
127 86 56 52 60 58 44 72 -25 21 -144 97 -153 97 -5 0 -14 -10 -21 -22z"/>
<path d="M5832 12137 c-8 -23 -33 -48 -77 -80 -76 -55 -102 -104 -76 -145 7
-11 17 -9 52 9 66 34 157 32 229 -6 71 -36 100 -58 245 -188 153 -137 233
-181 325 -181 47 0 77 6 108 23 39 20 49 41 19 41 -26 0 -248 115 -337 175
-116 78 -199 144 -351 280 -65 58 -119 105 -121 105 -2 0 -9 -15 -16 -33z"/>
<path d="M6996 11928 c-25 -87 -86 -197 -113 -206 -9 -2 -13 10 -13 43 0 25
-7 59 -15 75 -26 50 -105 77 -105 37 0 -8 -11 -40 -26 -72 -33 -76 -29 -112
16 -143 30 -21 43 -23 90 -18 73 8 188 65 234 116 55 61 48 116 -21 162 -33
21 -42 22 -47 6z"/>
<path d="M5467 11616 c-93 -34 -161 -107 -155 -168 3 -31 5 -33 46 -36 34 -3
56 4 107 32 35 20 72 36 82 35 10 0 41 -31 73 -71 135 -175 384 -330 505 -316
27 3 15 13 -115 93 -156 97 -258 174 -331 251 -45 47 -108 139 -122 177 -8 20
-37 21 -90 3z"/>
<path d="M6622 11388 c-13 -6 -46 -46 -73 -89 -35 -53 -61 -83 -85 -94 -72
-34 -93 -1 -45 69 53 77 38 91 -21 20 -31 -37 -38 -53 -38 -89 0 -41 2 -44 43
-63 98 -47 181 -37 252 32 47 46 88 139 83 190 -3 29 -6 31 -48 33 -25 1 -55
-3 -68 -9z"/>
<path d="M1860 11229 c-219 -16 -432 -70 -591 -149 -295 -149 -560 -422 -722
-746 -186 -371 -233 -751 -159 -1284 17 -124 38 -283 47 -355 51 -422 185
-837 414 -1280 130 -253 254 -453 537 -865 36 -52 106 -162 156 -245 114 -190
151 -238 235 -305 169 -133 233 -218 233 -308 0 -48 -15 -60 -52 -41 -56 29
-109 85 -197 208 -52 73 -113 148 -134 168 -52 47 -145 89 -160 74 -9 -9 1
-24 41 -60 60 -55 68 -90 28 -116 -30 -20 -45 -13 -105 49 -24 25 -48 43 -53
40 -16 -10 -8 -72 14 -99 11 -15 55 -52 97 -83 105 -78 131 -107 131 -148 0
-80 -60 -46 -211 117 -57 61 -127 137 -156 168 l-52 56 -42 -95 c-180 -403
-458 -866 -721 -1202 -94 -121 -275 -332 -327 -383 -47 -45 -52 -60 -17 -51
14 3 83 13 154 20 141 16 191 31 216 67 28 40 19 52 -17 25 -69 -53 -140 -37
-140 32 0 40 16 58 61 72 91 28 94 30 88 65 -9 48 8 81 74 145 81 76 102 87
143 72 18 -6 68 -16 112 -23 43 -6 91 -17 105 -24 57 -30 110 -112 110 -170 0
-39 -54 -35 -98 8 l-33 32 6 -28 c9 -36 -7 -54 -72 -83 -28 -13 -58 -33 -67
-46 -19 -27 -21 -78 -3 -78 7 0 53 16 103 36 49 20 191 74 316 120 563 208
798 321 1001 483 97 78 197 181 197 203 0 35 -29 76 -74 102 -100 59 -103 86
-8 86 113 0 172 -39 303 -201 27 -33 52 -50 99 -68 34 -13 132 -66 218 -118
251 -152 340 -190 489 -209 43 -5 66 -14 91 -35 18 -16 45 -35 61 -44 16 -8
40 -29 54 -46 l25 -32 81 17 c45 9 124 16 176 16 l94 0 17 -31 c9 -18 26 -82
39 -143 26 -126 42 -173 53 -160 5 5 32 46 61 90 63 99 72 138 42 193 l-21 41
23 14 c12 7 96 51 187 98 701 359 1309 882 1819 1563 426 570 772 1215 1108
2065 89 225 124 352 143 510 6 52 16 125 21 162 12 87 12 232 -1 316 -5 37
-16 121 -25 187 -28 223 -75 365 -209 635 -145 289 -283 464 -465 589 -73 50
-189 102 -269 119 l-41 10 -37 -62 c-21 -33 -108 -133 -194 -221 -170 -175
-211 -236 -234 -349 -8 -36 -17 -70 -21 -76 -3 -6 -38 -26 -76 -45 -80 -41
-170 -97 -186 -116 -6 -8 -14 -36 -18 -63 -12 -83 -43 -168 -83 -230 -22 -32
-115 -136 -209 -230 -151 -151 -175 -180 -209 -250 -32 -67 -39 -90 -39 -141
0 -52 4 -67 29 -99 16 -21 56 -55 90 -76 193 -121 206 -131 231 -175 14 -24
27 -56 28 -71 2 -22 -4 -29 -32 -38 -45 -16 -61 -41 -61 -96 0 -58 -20 -87
-70 -100 -34 -9 -47 -8 -87 10 -46 20 -61 21 -49 1 8 -12 63 -28 128 -36 56
-7 98 -37 98 -70 0 -38 -49 -58 -157 -63 -121 -6 -136 -1 -152 45 -47 132
-171 215 -423 283 l-108 29 -18 -27 c-51 -73 -53 -141 -12 -325 16 -74 30
-151 30 -172 0 -49 -43 -124 -190 -332 -65 -92 -138 -205 -162 -250 -49 -95
-52 -96 -150 -59 -270 101 -441 245 -632 531 -76 114 -81 130 -33 121 106 -21
214 -109 313 -257 37 -54 69 -97 71 -95 2 2 -3 21 -11 41 -22 53 -21 75 5 75
21 0 55 -31 166 -153 41 -46 57 -57 82 -57 17 0 31 3 31 8 -1 4 -24 23 -52 42
-60 41 -133 126 -177 210 -33 61 -29 80 11 59 12 -6 70 -58 129 -114 93 -89
150 -127 166 -112 2 3 -44 53 -103 113 -163 166 -302 364 -255 364 21 0 114
-88 205 -193 100 -117 153 -167 200 -189 83 -37 0 68 -179 229 -77 68 -162
150 -188 181 -81 96 -165 292 -125 292 19 0 88 -50 138 -100 22 -22 100 -115
173 -208 126 -157 188 -222 246 -252 36 -18 81 -30 81 -20 0 5 -46 50 -102
101 -277 248 -385 375 -422 497 -6 18 -4 22 14 22 66 0 159 -80 277 -239 47
-64 97 -129 112 -145 36 -39 110 -86 138 -86 18 0 5 17 -69 88 -50 48 -148
155 -218 237 -124 147 -280 305 -300 305 -5 0 -7 -12 -4 -28 9 -45 -17 -59
-66 -37 -22 10 -45 24 -51 32 -14 16 -29 17 -29 1 0 -7 -11 -36 -24 -64 -17
-36 -58 -85 -135 -161 -95 -93 -111 -113 -111 -140 0 -18 -6 -35 -12 -40 -28
-17 -121 -44 -128 -36 -3 4 -14 34 -24 65 -9 31 -61 145 -116 253 -54 107
-108 224 -119 258 -26 76 -37 186 -21 207 9 13 15 10 38 -20 15 -19 54 -65 87
-103 118 -137 185 -223 212 -274 16 -29 33 -53 39 -53 19 0 135 90 192 149 81
84 164 199 259 359 71 121 84 148 75 166 -20 43 -132 185 -258 325 -142 158
-247 281 -269 315 -13 20 -11 30 22 106 20 47 45 97 55 113 41 58 111 71 223
41 75 -19 117 -43 230 -134 131 -105 214 -140 328 -140 71 0 86 8 98 54 35
131 126 221 230 228 l43 3 73 -145 c40 -80 96 -176 126 -215 99 -130 234 -209
345 -203 l55 3 -99 60 c-117 71 -290 237 -371 355 -57 84 -148 256 -165 311
-10 34 -8 40 30 96 55 81 133 150 191 167 40 12 47 12 58 -1 10 -12 9 -23 -2
-51 -20 -47 -19 -54 8 -50 18 2 22 10 24 43 8 130 26 235 47 281 38 83 110
124 216 124 90 0 108 -11 170 -107 72 -112 195 -229 285 -274 54 -26 84 -34
139 -37 l71 -3 -51 29 c-89 50 -115 72 -304 256 -194 189 -240 223 -345 251
-216 56 -437 -38 -887 -376 -188 -142 -335 -239 -361 -239 -10 0 -53 31 -95
69 -43 38 -102 81 -132 96 -30 15 -131 74 -225 130 -179 108 -289 162 -451
221 -128 46 -331 99 -474 123 -101 17 -392 43 -438 40 -9 -1 -69 -6 -132 -10z
m1720 -2785 c22 -20 56 -62 75 -95 20 -32 58 -78 86 -103 54 -48 56 -66 8 -66
-43 0 -114 70 -177 176 -73 123 -70 158 8 88z m-1842 -2641 c125 -130 147
-157 137 -173 -9 -15 -51 -12 -84 5 -61 31 -191 215 -191 269 0 33 28 13 138
-101z m-405 -27 c141 -119 192 -173 246 -255 39 -60 69 -146 57 -159 -4 -3
-32 6 -61 22 -75 39 -170 143 -223 243 -37 71 -47 82 -75 88 -96 21 -139 73
-110 134 9 17 22 31 29 31 8 0 69 -47 137 -104z m-157 -82 c21 -14 99 -87 172
-161 103 -106 130 -138 121 -149 -35 -43 -86 -20 -160 72 -30 36 -66 72 -81
80 -26 14 -28 13 -34 -11 -8 -34 19 -74 86 -126 79 -61 130 -110 146 -141 16
-31 18 -58 5 -58 -5 0 -68 45 -141 101 -73 55 -134 98 -138 95 -10 -11 33 -78
81 -126 66 -67 116 -84 215 -77 l77 5 20 -31 c11 -17 50 -48 86 -70 36 -21 73
-52 82 -67 19 -31 23 -95 7 -105 -10 -6 -192 118 -224 153 l-18 21 -30 -22
c-35 -26 -90 -27 -138 -2 -36 18 -145 123 -199 190 -26 33 -33 37 -41 25 -5
-8 -10 -32 -10 -52 0 -27 -6 -42 -26 -57 -15 -12 -33 -21 -40 -21 -31 0 -11
-28 31 -44 25 -10 49 -25 54 -34 9 -15 12 -15 34 7 22 19 32 22 66 16 84 -14
111 -66 111 -215 0 -128 -24 -123 -190 36 -102 98 -159 139 -182 132 -6 -2 22
-32 64 -65 84 -69 138 -127 138 -148 0 -17 -47 -55 -70 -55 -28 0 -68 38 -117
112 -48 73 -84 101 -105 80 -8 -8 -2 -18 21 -38 40 -33 55 -68 41 -95 -15 -27
-26 -24 -72 21 -25 24 -51 40 -65 40 -54 0 -37 47 112 305 139 242 190 346
240 493 7 19 28 15 71 -14z m81 -956 c18 -18 26 -38 27 -64 1 -37 0 -39 -34
-42 -81 -8 -140 35 -140 101 0 35 9 39 68 35 40 -4 60 -11 79 -30z"/>
<path d="M5845 10899 c-41 -12 -79 -44 -71 -58 11 -18 122 -90 179 -117 64
-30 130 -31 175 -4 32 20 42 40 19 40 -7 0 -28 9 -48 19 -35 19 -36 19 -78 0
-78 -35 -95 -19 -62 57 31 70 29 74 -31 73 -29 0 -66 -5 -83 -10z"/>
<path d="M4900 10533 c0 -15 55 -95 101 -147 64 -72 184 -164 262 -202 75 -36
158 -51 197 -36 23 8 21 10 -26 26 -70 23 -132 68 -261 187 -61 57 -135 118
-165 136 -56 34 -108 51 -108 36z"/>
<path d="M5404 10353 c4 -16 14 -34 23 -40 20 -15 89 -17 98 -3 14 22 35 8 45
-30 13 -50 42 -70 100 -70 59 1 117 28 158 74 44 51 43 69 -5 59 -21 -4 -92
-7 -158 -7 -95 1 -134 5 -185 22 -82 28 -83 27 -76 -5z"/>
<path d="M3492 10044 c-58 -26 -61 -40 -23 -93 58 -83 231 -79 231 5 0 28 2
27 -56 13 -37 -10 -48 -9 -70 6 -26 17 -27 30 -8 79 8 22 -10 19 -74 -10z"/>
<path d="M4350 9874 c0 -3 30 -65 67 -137 88 -171 132 -217 274 -286 118 -58
232 -92 249 -75 8 8 -7 26 -51 65 -35 30 -131 114 -214 188 -141 127 -299 251
-317 251 -4 0 -8 -3 -8 -6z"/>
<path d="M5310 9867 c-14 -7 -26 -23 -28 -35 -3 -21 -1 -22 97 -22 102 0 145
11 156 38 3 8 4 16 3 17 -2 1 -48 5 -103 8 -70 4 -108 2 -125 -6z"/>
<path d="M4060 9805 c-34 -41 9 -116 161 -280 187 -202 320 -305 551 -426 180
-95 209 -103 233 -65 10 14 15 32 12 39 -3 7 -76 62 -163 122 -364 250 -467
343 -581 523 -42 65 -50 72 -79 72 -17 0 -48 7 -67 15 -45 19 -52 19 -67 0z"/>
<path d="M3735 9733 c11 -60 47 -113 150 -216 127 -128 150 -188 105 -276
l-19 -39 39 -27 c21 -15 67 -61 101 -104 81 -99 178 -199 209 -216 37 -19 130
-24 130 -6 0 5 -39 34 -87 64 -121 77 -173 135 -173 194 0 44 132 -25 310
-165 139 -107 216 -155 294 -182 89 -30 97 -25 41 26 -66 60 -176 132 -365
239 -189 107 -300 185 -372 264 -31 33 -99 129 -152 215 -90 145 -185 266
-208 266 -6 0 -8 -14 -3 -37z"/>
<path d="M3960 9062 c0 -5 14 -21 31 -38 17 -16 67 -74 112 -129 145 -180 218
-245 279 -245 19 0 13 10 -43 68 -36 37 -105 113 -152 168 -48 56 -103 114
-122 128 -40 31 -105 60 -105 48z"/>
<path d="M3880 8935 c0 -11 42 -66 104 -138 43 -50 323 -313 380 -357 18 -13
19 -13 11 0 -13 22 -63 88 -115 148 -38 46 -109 112 -342 321 -21 18 -38 30
-38 26z"/>
<path d="M3229 4473 c-6 -16 -16 -59 -21 -98 -11 -77 -2 -145 47 -350 15 -63
29 -156 32 -217 3 -60 10 -108 15 -108 21 0 67 31 73 50 7 23 4 37 -36 142
-38 102 -38 140 1 168 60 43 80 121 56 224 -20 83 -46 135 -91 181 -43 42 -62
44 -76 8z"/>
<path d="M4887 3963 c-11 -170 -9 -225 11 -263 37 -74 64 -43 103 115 30 127
27 156 -24 210 -24 25 -53 45 -64 45 -18 0 -20 -8 -26 -107z"/>
<path d="M246 4012 c-18 -65 -29 -158 -27 -229 1 -36 34 -78 69 -88 l22 -6 0
135 c0 143 -7 178 -39 195 -16 9 -21 8 -25 -7z"/>
<path d="M4007 3983 c-4 -3 -7 -69 -7 -145 0 -116 3 -140 16 -145 19 -7 62 32
80 74 18 43 18 137 -1 173 -21 40 -68 63 -88 43z"/>
<path d="M492 3523 c0 -54 -11 -180 -23 -281 -25 -203 -23 -220 29 -192 19 11
32 32 44 68 9 28 23 61 32 73 11 16 12 28 5 47 -5 13 -16 90 -25 170 -14 139
-32 212 -52 212 -5 0 -10 -44 -10 -97z"/>
<path d="M3291 3343 c-1 -117 3 -203 8 -203 87 0 95 181 16 353 l-23 52 -1
-202z"/>
<path d="M4006 3443 c-3 -8 -6 -53 -6 -99 0 -91 7 -102 53 -90 33 8 52 49 52
113 l0 55 -47 18 c-40 15 -48 16 -52 3z"/>
<path d="M810 2980 c0 -139 3 -146 49 -114 48 34 67 143 36 203 -15 30 -33 41
-66 41 -18 0 -19 -9 -19 -130z"/>
<path d="M3661 3059 c5 -22 8 -152 7 -287 -3 -224 -1 -251 16 -290 10 -24 22
-40 26 -35 20 21 44 215 44 363 1 167 -7 208 -51 260 -37 44 -53 40 -42 -11z"/>
<path d="M587 2140 c-40 -106 -59 -405 -37 -590 20 -168 78 -345 117 -357 19
-7 33 90 33 230 0 156 -9 236 -56 492 -38 208 -48 249 -57 225z"/>
<path d="M3687 1783 c-12 -11 -8 -47 18 -144 13 -51 25 -115 25 -141 0 -41 2
-47 18 -41 79 28 102 157 46 264 -22 43 -88 81 -107 62z"/>
<path d="M3326 1338 c-3 -7 -16 -149 -31 -315 -50 -567 -31 -861 65 -975 l28
-33 16 37 c44 104 44 268 1 543 -63 399 -68 480 -35 617 24 101 24 94 0 118
-23 23 -39 26 -44 8z"/>
<path d="M3726 1200 c-7 -71 -2 -110 15 -110 5 0 21 24 36 53 46 86 45 84 9
106 -18 12 -38 21 -43 21 -6 0 -14 -32 -17 -70z"/>
</g>
</svg>
