<?xml version="1.0" standalone="no"?>
<!DOCTYPE svg PUBLIC "-//W3C//DTD SVG 20010904//EN"
 "http://www.w3.org/TR/2001/REC-SVG-20010904/DTD/svg10.dtd">
<svg version="1.0" xmlns="http://www.w3.org/2000/svg"
 width="746.000000pt" height="1280.000000pt" viewBox="0 0 746.000000 1280.000000"
 preserveAspectRatio="xMidYMid meet">
<metadata>
Created by potrace 1.15, written by Peter Selinger 2001-2017
</metadata>
<g transform="translate(0.000000,1280.000000) scale(0.100000,-0.100000)"
fill="#f44336" stroke="none">
<path d="M6244 12719 c-81 -100 -121 -159 -150 -224 -27 -63 -30 -61 74 -44
73 12 131 3 142 -21 80 -175 203 -297 388 -383 89 -41 208 -50 268 -19 72 37
73 48 7 66 -168 46 -334 133 -440 230 -126 115 -192 234 -216 386 l-12 82 -61
-73z"/>
<path d="M6463 12769 l-31 -9 14 -63 c22 -94 70 -185 133 -248 91 -90 198
-129 358 -129 l93 0 0 58 c0 105 -49 212 -133 289 -85 78 -185 113 -316 112
-47 0 -100 -5 -118 -10z"/>
<path d="M7173 12373 c-24 -36 -33 -253 -12 -253 50 1 237 148 214 168 -33 29
-118 84 -149 97 -35 15 -36 14 -53 -12z"/>
<path d="M5830 12171 c0 -37 -21 -66 -70 -100 -84 -57 -107 -95 -94 -159 l6
-30 52 26 c40 21 65 26 116 26 104 0 161 -35 380 -231 185 -166 292 -201 428
-139 35 16 59 32 55 36 -4 4 -26 13 -48 20 -62 20 -231 107 -320 164 -98 64
-212 156 -368 295 -65 58 -123 108 -128 109 -5 2 -9 -5 -9 -17z"/>
<path d="M6981 11914 c-17 -67 -81 -184 -100 -184 -3 0 -6 24 -6 54 0 61 -16
86 -77 117 -46 23 -48 23 -48 2 0 -10 -14 -49 -30 -88 -17 -38 -30 -81 -30
-95 0 -33 45 -78 87 -86 112 -22 333 109 333 197 0 40 -28 79 -78 107 l-40 22
-11 -46z"/>
<path d="M5451 11618 c-98 -37 -167 -131 -146 -197 11 -36 79 -28 170 20 42
22 78 39 79 37 27 -42 120 -149 165 -191 135 -125 277 -197 401 -205 l75 -4
-155 97 c-189 119 -280 186 -347 258 -54 56 -115 146 -127 185 -9 28 -42 28
-115 0z"/>
<path d="M6614 11391 c-17 -11 -47 -45 -67 -78 -19 -32 -46 -68 -60 -81 -24
-23 -97 -42 -97 -26 0 5 16 33 35 61 19 29 35 59 35 67 0 19 -23 33 -28 17 -2
-7 -22 -32 -43 -57 -32 -38 -39 -53 -39 -89 0 -38 4 -46 33 -63 156 -97 336 3
364 204 4 34 2 48 -8 55 -24 15 -93 10 -125 -10z"/>
<path d="M1885 11239 c-455 -28 -779 -180 -1073 -504 -213 -235 -372 -550
-431 -856 -49 -254 -50 -460 -6 -794 14 -99 31 -241 40 -315 85 -728 338
-1322 922 -2163 57 -84 147 -222 198 -307 119 -198 148 -235 242 -311 173
-139 223 -206 223 -302 l0 -47 -38 19 c-55 28 -115 91 -203 217 -91 129 -149
186 -226 221 -51 24 -56 24 -71 9 -16 -16 -13 -20 36 -66 54 -52 66 -86 37
-110 -22 -18 -48 -4 -99 51 -26 28 -52 49 -59 46 -6 -2 -13 -22 -15 -44 -4
-52 25 -87 142 -173 69 -51 98 -82 112 -120 1 -3 -2 -15 -7 -28 l-9 -23 -42
29 c-43 30 -114 102 -266 270 -46 51 -87 92 -91 92 -4 0 -31 -53 -60 -117
-257 -570 -652 -1163 -1051 -1577 -61 -63 -76 -84 -55 -74 42 21 63 25 215 43
167 19 220 41 234 96 5 20 6 45 2 55 -6 16 -9 14 -22 -13 -15 -31 -65 -63 -98
-63 -22 0 -56 36 -56 60 0 29 33 57 82 70 66 18 91 37 78 60 -5 10 -10 28 -10
40 0 23 58 90 131 151 46 38 49 39 76 26 15 -8 65 -20 111 -26 126 -16 170
-48 203 -143 l18 -53 -31 -3 c-26 -3 -38 4 -68 37 -47 51 -66 54 -43 7 9 -19
13 -41 10 -50 -4 -9 -35 -29 -70 -45 -64 -29 -87 -57 -87 -104 0 -44 12 -47
75 -21 33 14 209 81 392 149 377 142 503 194 654 271 196 100 415 260 497 363
53 66 36 112 -59 169 -19 12 -44 30 -54 42 -18 20 -18 20 51 20 116 0 177 -40
288 -187 27 -36 51 -56 75 -64 57 -19 143 -64 281 -149 221 -136 323 -178 473
-196 31 -3 61 -12 65 -19 4 -7 33 -29 66 -50 37 -23 63 -48 69 -66 8 -20 16
-27 28 -24 62 20 168 35 250 35 l97 0 16 -41 c9 -22 25 -85 36 -139 18 -95 42
-164 61 -176 5 -3 9 3 9 14 0 10 25 58 55 105 67 103 76 140 46 198 -12 23
-21 42 -19 43 155 69 397 201 576 313 1024 644 1811 1647 2422 3088 214 507
265 671 289 935 28 303 -4 651 -83 890 -30 93 -131 312 -207 448 -177 317
-392 510 -650 582 -42 11 -75 16 -77 11 -15 -46 -109 -161 -232 -283 -180
-179 -208 -226 -245 -400 -4 -22 -20 -35 -76 -63 -38 -20 -101 -56 -139 -80
-61 -39 -70 -49 -70 -74 0 -56 -22 -136 -58 -211 -32 -66 -57 -96 -211 -251
-187 -188 -236 -254 -271 -366 -18 -57 -18 -66 -4 -107 20 -57 86 -119 187
-174 93 -51 151 -102 178 -153 26 -52 24 -66 -10 -74 -46 -10 -65 -40 -71
-109 -5 -59 -6 -62 -43 -80 -34 -16 -44 -17 -80 -6 -23 6 -57 23 -75 37 l-32
24 12 -28 c21 -51 39 -62 118 -73 86 -12 120 -30 120 -64 0 -37 -60 -56 -178
-56 l-98 0 -13 38 c-47 129 -154 207 -383 276 -166 50 -165 50 -195 -6 -39
-75 -40 -140 -4 -301 17 -76 31 -157 31 -180 0 -51 -39 -121 -162 -294 -124
-173 -162 -231 -198 -303 -18 -36 -33 -66 -35 -68 -5 -6 -156 53 -236 94 -184
92 -327 228 -481 457 -44 65 -78 120 -76 122 7 7 113 -36 158 -65 61 -39 98
-80 178 -195 81 -118 91 -130 97 -123 3 3 -3 30 -15 59 -11 30 -20 62 -20 72
0 33 53 -7 125 -93 76 -91 99 -110 135 -110 31 0 61 19 42 27 -34 14 -131 97
-165 141 -38 50 -96 150 -97 165 0 16 65 -37 167 -134 97 -93 145 -122 174
-104 6 5 -34 53 -105 124 -63 64 -136 143 -162 176 -54 70 -117 175 -110 183
6 5 135 -124 286 -285 67 -71 94 -94 128 -104 23 -7 45 -9 48 -6 12 12 -78
118 -166 195 -47 42 -130 121 -186 177 -85 84 -107 113 -142 185 -23 47 -44
103 -48 124 l-7 39 44 -31 c61 -41 156 -144 273 -295 144 -186 227 -256 321
-272 l40 -7 -80 79 c-45 43 -135 128 -202 190 -66 62 -142 141 -168 175 -45
59 -112 184 -103 193 8 8 93 -37 135 -71 24 -20 85 -91 135 -158 147 -196 204
-246 283 -246 l36 0 -58 48 c-72 61 -159 153 -289 307 -103 123 -296 315 -315
315 -7 0 -8 -7 -4 -17 31 -82 8 -100 -66 -54 -58 36 -69 38 -69 14 0 -46 -50
-121 -131 -198 -114 -108 -139 -141 -139 -181 0 -29 -4 -34 -23 -34 -12 0 -39
-9 -60 -19 -20 -10 -39 -16 -41 -12 -2 3 -12 33 -22 66 -10 33 -62 146 -115
252 -53 106 -107 220 -119 255 -22 67 -39 208 -24 207 5 0 35 -33 67 -72 31
-40 93 -115 138 -167 44 -52 97 -124 117 -160 19 -36 37 -67 38 -68 1 -2 31
15 66 39 77 52 186 160 256 254 59 80 232 367 232 385 0 30 -149 214 -354 440
-48 52 -111 127 -141 165 l-55 71 37 84 c20 47 43 95 51 108 34 52 108 65 217
37 72 -19 103 -38 224 -133 52 -40 115 -84 141 -97 63 -32 163 -49 232 -41 53
7 56 9 62 39 11 61 63 152 105 189 55 47 171 78 171 46 0 -25 102 -224 155
-304 102 -153 233 -244 362 -252 34 -2 75 -1 90 3 27 6 27 7 -16 26 -152 68
-358 250 -463 409 -63 96 -143 246 -160 302 -10 35 -9 39 35 101 58 81 116
131 175 151 25 9 49 16 54 16 14 0 9 -29 -12 -69 -22 -44 -19 -51 25 -51 l32
0 6 118 c10 177 42 263 117 306 29 17 52 21 134 21 62 0 101 -4 103 -11 11
-34 115 -174 172 -231 120 -123 218 -172 339 -173 78 0 91 9 38 28 -75 27
-168 101 -326 259 -90 91 -187 181 -216 200 -193 128 -407 105 -707 -76 -45
-27 -186 -126 -312 -220 -126 -93 -264 -191 -307 -216 l-77 -47 -68 67 c-46
45 -94 80 -148 107 -44 22 -134 74 -200 116 -156 97 -260 151 -416 212 -227
90 -532 160 -754 175 -181 11 -212 12 -330 4z m1726 -2842 c16 -23 49 -70 73
-103 25 -35 58 -67 75 -75 41 -18 39 -29 -6 -29 -31 0 -44 8 -87 53 -45 46
-121 166 -142 221 -7 18 -5 18 25 -3 17 -13 45 -42 62 -64z m-1961 -2517 c36
-29 212 -222 218 -241 6 -16 -52 -9 -85 10 -17 11 -50 44 -73 72 -41 52 -116
189 -104 189 3 0 23 -13 44 -30z m-435 -10 c3 -6 67 -62 141 -126 167 -143
241 -239 274 -356 l9 -29 -60 33 c-80 42 -165 136 -218 240 -42 82 -43 82 -94
96 -86 22 -122 69 -90 122 18 32 28 37 38 20z m118 -334 c126 -127 137 -141
121 -153 -10 -7 -25 -13 -33 -13 -9 0 -57 43 -107 95 -50 52 -96 95 -103 95
-6 0 -16 -11 -23 -25 -19 -42 7 -80 107 -160 94 -75 126 -110 140 -155 6 -20
5 -23 -6 -14 -119 93 -300 226 -303 223 -2 -2 8 -28 22 -58 34 -68 108 -146
164 -171 46 -21 139 -27 180 -11 21 8 26 5 37 -20 8 -19 36 -43 81 -69 88 -51
110 -79 110 -138 l0 -45 -22 20 c-13 11 -58 44 -101 73 -43 29 -87 66 -99 83
-18 25 -22 27 -30 13 -16 -28 -65 -47 -104 -40 -52 10 -140 80 -218 173 -63
75 -69 80 -82 64 -7 -10 -14 -36 -14 -59 0 -45 -18 -67 -63 -78 -40 -9 -30
-27 31 -55 28 -14 55 -33 58 -44 6 -18 8 -17 34 8 25 24 34 27 67 20 84 -15
103 -51 103 -202 l0 -92 -32 11 c-18 6 -79 58 -138 116 -104 103 -147 133
-205 146 -27 5 -22 -1 40 -57 38 -34 94 -86 124 -116 l54 -54 -27 -24 c-52
-45 -84 -27 -159 89 -48 74 -78 95 -114 79 l-26 -12 46 -43 c49 -45 61 -81 30
-93 -12 -5 -27 6 -53 35 -28 33 -42 42 -68 42 l-32 0 25 57 c14 31 72 138 129
237 144 251 190 346 241 493 8 25 78 -30 218 -171z m-82 -805 c19 -20 29 -40
29 -60 0 -30 -1 -31 -46 -31 -74 0 -113 30 -114 88 0 32 0 32 51 32 43 0 55
-5 80 -29z"/>
<path d="M5837 10906 c-43 -16 -77 -43 -77 -61 0 -15 135 -105 200 -134 58
-26 113 -26 166 0 68 32 73 46 22 59 -24 7 -50 18 -59 26 -15 13 -23 12 -74
-11 -32 -14 -61 -23 -64 -20 -3 4 3 27 13 53 10 26 20 59 23 75 l5 27 -58 0
c-33 -1 -76 -7 -97 -14z"/>
<path d="M4880 10552 c0 -22 70 -122 127 -182 164 -174 351 -266 463 -228 27
9 39 18 30 21 -8 2 -35 11 -60 18 -65 20 -138 73 -275 199 -66 61 -143 122
-170 135 -58 29 -115 47 -115 37z"/>
<path d="M5393 10365 c9 -58 33 -77 87 -73 25 3 53 8 63 12 14 7 17 3 17 -19
0 -16 11 -38 29 -56 56 -55 170 -32 244 49 20 23 37 51 37 62 0 19 -4 20 -52
13 -29 -4 -102 -7 -163 -7 -104 1 -161 13 -249 49 -17 8 -19 5 -13 -30z"/>
<path d="M3511 10060 c-24 -11 -50 -20 -57 -20 -42 0 -15 -83 41 -126 28 -21
51 -29 95 -32 52 -4 60 -2 88 24 17 16 34 44 37 63 7 30 5 33 -11 27 -113 -44
-165 -26 -130 45 9 18 16 34 16 36 0 9 -40 0 -79 -17z"/>
<path d="M4397 9758 c100 -196 144 -244 293 -317 58 -28 135 -58 172 -67 116
-29 129 -3 36 73 -35 27 -119 101 -188 163 -176 160 -357 300 -385 300 -3 0
29 -68 72 -152z"/>
<path d="M5310 9879 c-29 -12 -40 -26 -40 -56 0 -22 3 -23 99 -23 106 0 156
12 171 40 17 32 11 36 -52 38 -35 1 -83 4 -108 6 -25 3 -56 1 -70 -5z"/>
<path d="M4055 9817 c-29 -22 -15 -87 34 -152 127 -168 322 -354 481 -460 111
-73 366 -205 397 -205 24 0 63 43 63 69 0 9 -64 59 -153 120 -345 238 -476
351 -578 504 -32 49 -59 93 -59 98 0 5 -18 9 -40 9 -22 0 -57 7 -77 15 -43 18
-45 18 -68 2z"/>
<path d="M3723 9750 c9 -70 48 -131 152 -239 56 -58 107 -116 114 -128 17 -34
13 -100 -10 -145 -17 -32 -18 -43 -8 -47 24 -8 101 -85 189 -191 94 -112 148
-157 202 -169 39 -8 98 0 101 14 1 6 -40 38 -91 71 -132 87 -172 130 -172 183
l0 20 48 -20 c58 -25 155 -91 285 -192 139 -109 233 -157 352 -181 28 -6 25
-2 -34 55 -75 72 -165 132 -386 257 -184 104 -304 190 -370 265 -25 29 -89
121 -142 205 -87 140 -200 282 -225 282 -7 0 -8 -16 -5 -40z"/>
<path d="M3967 9038 c25 -24 88 -96 140 -161 147 -185 210 -237 288 -237 l35
0 -42 38 c-23 20 -92 96 -154 169 -149 172 -225 233 -293 233 -16 0 -11 -9 26
-42z"/>
<path d="M3840 8985 c0 -14 73 -118 127 -181 33 -38 140 -143 239 -233 215
-198 230 -210 219 -191 -26 47 -93 138 -146 200 -57 66 -439 418 -439 405z"/>
<path d="M3214 4458 c-29 -97 -24 -194 21 -388 26 -113 40 -200 44 -277 l6
-112 42 19 c25 11 48 30 54 44 12 26 8 43 -45 181 -25 66 -21 108 14 133 43
33 62 77 63 146 0 78 -24 160 -65 222 -29 43 -88 94 -108 94 -4 0 -15 -28 -26
-62z"/>
<path d="M4872 3911 c-4 -186 4 -225 52 -257 15 -9 28 -15 30 -13 7 9 48 135
61 193 17 72 20 166 4 166 -6 0 -27 18 -46 40 -28 30 -44 40 -67 40 l-31 0 -3
-169z"/>
<path d="M240 4036 c0 -2 -6 -39 -14 -82 -15 -82 -19 -117 -17 -171 1 -40 44
-89 84 -99 l28 -7 -3 158 -3 157 -28 24 c-25 21 -47 31 -47 20z"/>
<path d="M4000 3840 c0 -149 1 -160 19 -160 52 0 101 87 101 182 0 78 -43 138
-97 138 -23 0 -23 0 -23 -160z"/>
<path d="M483 3518 c0 -68 -8 -168 -16 -223 -9 -55 -19 -134 -23 -176 -6 -71
-5 -77 13 -83 43 -14 71 9 89 71 9 32 24 67 34 78 13 15 15 27 9 50 -5 17 -16
91 -24 165 -8 74 -18 147 -21 162 -5 28 -40 78 -53 78 -3 0 -7 -55 -8 -122z"/>
<path d="M3280 3358 l0 -237 31 11 c94 33 91 202 -8 413 l-23 50 0 -237z"/>
<path d="M3998 3475 c-2 -2 -2 -55 0 -119 l3 -116 27 0 c60 0 92 53 92 153 0
42 -2 47 -23 47 -12 0 -39 8 -59 19 -21 10 -39 17 -40 16z"/>
<path d="M800 2980 c0 -130 1 -140 19 -140 27 0 71 39 87 76 18 44 18 118 -1
154 -18 34 -43 50 -79 50 l-26 0 0 -140z"/>
<path d="M3647 3092 c4 -15 8 -144 8 -287 0 -266 3 -291 38 -360 l21 -40 13
55 c7 30 20 114 29 185 34 269 -2 443 -98 468 -18 5 -19 3 -11 -21z"/>
<path d="M581 2159 c-41 -125 -62 -410 -42 -589 20 -183 60 -315 117 -383 l23
-27 12 37 c20 68 23 334 4 468 -19 142 -82 481 -94 510 -7 17 -9 16 -20 -16z"/>
<path d="M3675 1791 c-9 -16 3 -98 26 -174 10 -34 19 -88 19 -120 0 -56 1 -58
23 -52 109 33 124 230 25 322 -28 27 -82 40 -93 24z"/>
<path d="M3316 1348 c-2 -7 -9 -76 -15 -153 -7 -77 -19 -214 -27 -305 -17
-199 -19 -519 -4 -613 17 -109 49 -193 90 -240 l38 -42 23 75 c37 118 32 291
-16 585 -46 283 -55 433 -31 536 10 41 19 84 22 97 8 40 -69 97 -80 60z"/>
<path d="M3715 1195 c-7 -86 0 -115 29 -115 6 0 29 34 50 76 42 82 42 78 -16
109 -50 28 -55 22 -63 -70z"/>
</g>
</svg>
