<!-- icon666.com - MILLIONS vector ICONS FREE --><svg viewBox="0 0 512 512" xmlns="http://www.w3.org/2000/svg"><path d="m145.84375 85.457031c-1.039062-1.898437-2.835938-3.261719-4.945312-3.753906-2.105469-.492187-4.320313-.0625-6.089844 1.179687-47.660156 33.425782-79.722656 85.464844-87.960938 142.773438-.597656 4.160156 2.285156 8.011719 6.441406 8.609375 4.164063.59375 8.011719-2.285156 8.609376-6.441406 7.242187-50.375 34.332031-96.367188 74.773437-127.445313l36.316406 66.34375c-13.203125-5.550781-27.21875-9.226562-41.472656-10.816406-2.292969-.253906-4.582031.546875-6.21875 2.183594-1.632813 1.632812-2.433594 3.921875-2.179687 6.21875 3.628906 32.542968 17.355468 62.140625 39.765624 85.902344-32.632812.945312-63.273437 12.171874-88.863281 32.628906-1.804687 1.441406-2.859375 3.625-2.859375 5.9375 0 2.308594 1.050782 4.496094 2.855469 5.9375 26.753906 21.394531 59.035156 32.699218 93.363281 32.699218 8.410156 0 16.71875-.695312 24.871094-2.054687-6.097656 11.117187-9.773438 23.515625-10.601562 36.257813-.148438 2.308593.757812 4.558593 2.46875 6.113281 1.410156 1.285156 3.238281 1.984375 5.121093 1.984375.394531 0 .796875-.03125 1.195313-.09375 19.691406-3.136719 37.210937-12.597656 50.660156-27.363282 2.648438-2.914062 5.085938-5.988281 7.304688-9.207031v77.261719c0 4.199219 3.40625 7.605469 7.605468 7.605469 4.199219 0 7.601563-3.40625 7.601563-7.605469v-78.035156l59.203125 108.152344c-21.371094 7.757812-43.800782 11.683593-66.808594 11.683593-52.210938 0-101.339844-20.28125-138.339844-57.109375-36.988281-36.816406-57.5-85.824218-57.761718-137.996094-.019532-4.1875-3.421876-7.566406-7.601563-7.566406-.015625 0-.027344 0-.039063 0-4.199218.019532-7.585937 3.441406-7.566406 7.640625.28125 56.21875 22.382813 109.03125 62.238282 148.699219 39.871093 39.683594 92.8125 61.539062 149.070312 61.539062 27.871094 0 54.96875-5.351562 80.542969-15.90625 1.996093-.824218 3.546875-2.460937 4.269531-4.496093.71875-2.039063.535156-4.289063-.5-6.183594zm40.195312 105.109375 38.902344 71.070313c-12.335937-5.140625-25.316406-8.59375-38.628906-10.28125-3.296875-2.730469-6.507812-5.632813-9.542969-8.660157-19.429687-19.4375-32.125-43.542968-37.074219-70.199218 16.417969 3.089844 32.242188 9.25 46.34375 18.070312zm-94.519531 98.214844c22.355469-15.363281 48.382813-23.433594 75.859375-23.433594 25.027344 0 49.367188 6.925782 70.542969 20.003906l2.792969 5.097657c-21.820313 14.253906-47.035156 21.757812-73.335938 21.757812-27.488281 0-53.515625-8.066406-75.859375-23.425781zm138.328125 43.238281c-8.714844 9.570313-19.503906 16.4375-31.601562 20.199219 2.53125-11.984375 8.074218-23.015625 16.308594-32.378906 10.640624-3.535156 20.878906-8.273438 30.558593-14.179688-3.132812 9.730469-8.328125 18.734375-15.265625 26.359375zm0 0"></path><path d="m437.019531 74.980469c-48.351562-48.351563-112.640625-74.980469-181.019531-74.980469s-132.667969 26.628906-181.019531 74.980469c-48.351563 48.351562-74.980469 112.640625-74.980469 181.019531s26.628906 132.667969 74.980469 181.019531c48.351562 48.351563 112.640625 74.980469 181.019531 74.980469s132.667969-26.628906 181.019531-74.980469c48.351563-48.351562 74.980469-112.640625 74.980469-181.019531s-26.628906-132.667969-74.980469-181.019531zm-10.753906 351.285156c-45.480469 45.480469-105.949219 70.527344-170.265625 70.527344s-124.785156-25.046875-170.265625-70.527344-70.527344-105.949219-70.527344-170.265625 25.046875-124.785156 70.527344-170.265625 105.949219-70.527344 170.265625-70.527344 124.785156 25.046875 170.265625 70.527344 70.527344 105.949219 70.527344 170.265625-25.046875 124.785156-70.527344 170.265625zm0 0"></path><path d="m256 44.679688c-27.859375 0-54.960938 5.355468-80.546875 15.910156-1.996094.824218-3.550781 2.460937-4.269531 4.5-.71875 2.039062-.535156 4.285156.5 6.179687l194.464844 355.277344c1.039062 1.898437 2.835937 3.261719 4.941406 3.753906.574218.136719 1.152344.199219 1.730468.199219 1.546876 0 3.074219-.472656 4.363282-1.378906 56.433594-39.574219 90.125-104.292969 90.125-173.121094 0-116.523438-94.792969-211.320312-211.308594-211.320312zm79.238281 198.007812c-3.027343 3.019531-6.222656 5.90625-9.5 8.628906-11.511719 1.441406-22.75 4.222656-33.621093 8.308594l-11.796876-21.558594c3.445313-6.054687 7.390626-11.878906 11.769532-17.351562 3.125-3.886719 6.492187-7.644532 10.011718-11.164063 19.425782-19.425781 43.535157-32.121093 70.203126-37.066406-4.941407 26.660156-17.640626 50.769531-37.066407 70.203125zm-56.429687-29.671875c-2.429688 3.136719-4.742188 6.363281-6.910156 9.671875l-35.03125-64.003906c4.414062-23.828125 11.277343-44.769532 19.132812-58.757813 14.066406 25.078125 23.429688 70.039063 23.429688 100.242188 0 4.292969-.21875 8.605469-.621094 12.847656zm96.511718 198.613281-46.554687-85.046875c5.257813.554688 10.554687.835938 15.855469.835938 14.25 0 28.320312-1.996094 41.820312-5.933594 4.03125-1.175781 6.347656-5.394531 5.171875-9.425781-1.175781-4.035156-5.394531-6.351563-9.425781-5.175782-12.117188 3.53125-24.757812 5.324219-37.566406 5.324219-8.402344 0-16.792969-.78125-24.992188-2.324219l-20.125-36.765624c14.425782-5.152344 29.5625-7.769532 45.117188-7.769532 27.472656 0 53.496094 8.070313 75.847656 23.425782-3.773438 2.582031-7.683594 4.972656-11.699219 7.152343-3.691406 2-5.058593 6.617188-3.054687 10.308594 1.378906 2.539063 3.992187 3.976563 6.691406 3.976563 1.222656 0 2.46875-.296876 3.621094-.921876 7.722656-4.191406 15.109375-9.097656 21.957031-14.574218 1.804687-1.445313 2.855469-3.628906 2.855469-5.941406 0-2.308594-1.054688-4.492188-2.859375-5.933594-25.589844-20.457032-56.230469-31.683594-88.863281-32.628906 22.410156-23.753907 36.136718-53.359376 39.761718-85.902344.257813-2.296875-.542968-4.585938-2.179687-6.21875-1.632813-1.636719-3.921875-2.441406-6.21875-2.179688-32.082031 3.578125-62.414063 17.65625-85.914063 39.777344-.957031-33.328125-12.230468-88.71875-32.625-114.234375-1.445312-1.808594-3.628906-2.859375-5.941406-2.859375-2.3125.003906-4.496094 1.054688-5.941406 2.859375-12.039063 15.070313-19.773438 38.542969-24.332032 56.875l-36.539062-66.753906c21.378906-7.757813 43.8125-11.683594 66.8125-11.683594 108.128906 0 196.101562 87.972656 196.101562 196.109375 0 61.03125-28.546874 118.585938-76.78125 155.628906zm0 0"></path></svg>