<?xml version="1.0" standalone="no"?>
   <!DOCTYPE svg PUBLIC "-//W3C//DTD SVG 1.1//EN" 
   "http://www.w3.org/Graphics/SVG/1.1/DTD/svg11.dtd"><svg id="svg" version="1.1" width="1242" height="1848" xmlns="http://www.w3.org/2000/svg"><path d="M712.500 157.297 C 697.081 160.474,667.271 169.736,595.500 193.647 C 587.250 196.395,563.625 199.946,543.000 201.538 C 497.590 205.042,475.943 211.678,420.000 239.240 C 384.964 256.501,377.006 259.289,361.011 259.902 C 319.780 261.483,292.535 289.894,269.878 354.934 C 260.980 380.481,249.485 394.033,220.823 412.771 C 208.433 420.872,196.597 430.875,194.522 435.000 C 192.425 439.169,190.441 455.823,190.054 472.500 C 189.097 513.797,187.267 534.167,183.718 543.021 C 182.060 547.157,179.781 573.482,178.654 601.521 C 175.757 673.618,174.792 682.384,166.600 711.000 C 157.943 741.240,153.009 791.042,154.608 832.045 C 155.657 858.946,157.089 864.988,170.607 899.545 C 178.773 920.420,188.436 948.300,192.082 961.500 C 195.727 974.700,203.088 994.275,208.440 1005.000 C 220.692 1029.551,224.390 1040.995,227.893 1065.194 C 230.801 1085.284,237.368 1113.839,244.408 1137.000 C 246.665 1144.425,249.181 1160.805,249.998 1173.400 C 250.816 1185.996,253.625 1200.441,256.242 1205.502 C 258.859 1210.562,261.000 1217.027,261.000 1219.868 C 261.000 1222.709,267.850 1238.818,276.222 1255.664 L 291.444 1286.294 290.163 1312.897 C 289.458 1327.529,287.252 1353.675,285.261 1371.000 C 280.206 1414.982,286.244 1452.473,307.486 1509.000 C 312.696 1522.864,321.496 1552.477,332.804 1594.196 C 344.707 1638.114,364.303 1654.631,407.958 1657.542 C 429.784 1658.997,435.261 1661.222,470.471 1682.937 C 490.204 1695.107,505.098 1696.998,540.925 1691.883 C 565.232 1688.413,573.240 1685.520,608.491 1667.473 C 630.486 1656.213,649.955 1647.000,651.755 1647.000 C 653.555 1647.000,657.421 1644.834,660.347 1642.186 C 665.640 1637.395,695.885 1630.515,730.841 1626.150 C 740.929 1624.890,751.020 1622.724,753.265 1621.336 C 755.511 1619.948,764.379 1617.859,772.973 1616.692 C 789.708 1614.421,840.752 1591.715,857.026 1579.302 C 869.678 1569.652,887.525 1563.256,911.678 1559.715 C 922.225 1558.168,935.909 1554.063,942.086 1550.591 C 957.196 1542.099,973.693 1519.754,983.181 1494.928 C 987.475 1483.693,995.471 1467.419,1000.948 1458.764 C 1028.120 1415.832,1026.558 1396.572,992.974 1360.472 C 972.845 1338.835,969.840 1331.132,975.198 1314.909 C 977.271 1308.634,979.072 1295.880,979.200 1286.566 C 979.403 1271.805,978.026 1267.572,968.464 1253.566 C 951.268 1228.379,949.911 1219.100,955.454 1164.567 C 961.854 1101.601,963.711 1096.344,990.445 1065.487 C 1005.556 1048.046,1013.634 1030.530,1017.157 1007.562 C 1020.948 982.858,1026.800 967.251,1043.988 936.000 C 1062.652 902.069,1065.364 894.008,1068.210 864.000 C 1069.540 849.975,1072.891 816.900,1075.657 790.500 C 1078.423 764.100,1081.004 714.825,1081.393 681.000 C 1081.782 647.175,1083.028 616.589,1084.163 613.030 C 1086.666 605.184,1072.430 529.692,1066.344 518.537 C 1063.955 514.158,1062.000 508.005,1062.000 504.865 C 1062.000 501.725,1057.279 489.783,1051.509 478.328 C 1045.739 466.873,1041.014 455.302,1041.009 452.616 C 1041.004 449.930,1038.856 442.602,1036.236 436.331 C 1033.082 428.783,1032.091 420.800,1033.304 412.714 C 1036.908 388.694,1035.442 368.026,1029.570 360.078 C 1022.260 350.183,987.788 321.158,974.251 313.500 C 968.417 310.200,945.505 293.719,923.335 276.877 C 893.127 253.928,878.574 240.493,865.263 223.270 C 829.627 177.160,822.376 169.737,804.691 161.259 C 789.463 153.960,784.246 153.051,759.000 153.303 C 743.325 153.460,722.400 155.257,712.500 157.297 M714.846 655.035 C 720.156 657.255,726.244 661.174,728.377 663.745 C 730.509 666.316,739.543 671.986,748.453 676.346 C 767.410 685.620,792.708 707.488,802.589 723.141 C 813.959 741.153,816.806 756.435,812.690 777.359 C 809.413 794.015,807.805 796.598,793.804 807.691 C 746.083 845.499,676.600 848.197,581.941 815.919 C 559.891 808.401,537.548 797.329,499.500 775.066 C 494.550 772.170,477.000 762.781,460.500 754.202 C 428.975 737.810,420.897 728.761,427.892 717.672 C 432.976 709.612,494.247 678.739,522.000 670.253 C 536.025 665.964,552.138 661.050,557.807 659.332 C 576.863 653.557,598.216 651.751,651.846 651.374 C 690.481 651.103,707.855 652.113,714.846 655.035 M304.194 707.001 C 329.952 715.644,354.630 731.014,353.357 737.622 C 352.847 740.269,343.298 747.927,332.137 754.639 C 320.975 761.352,302.091 774.840,290.171 784.612 C 250.286 817.315,239.984 823.415,224.565 823.460 C 210.639 823.500,199.445 817.364,198.621 809.238 C 198.412 807.182,197.383 801.939,196.335 797.586 C 195.155 792.686,197.353 780.118,202.106 764.586 C 206.328 750.789,210.660 735.759,211.732 731.187 C 213.991 721.556,231.444 706.057,244.500 702.089 C 259.044 697.669,282.015 699.559,304.194 707.001 M438.972 1080.060 C 466.091 1090.206,504.408 1128.564,521.326 1162.500 C 530.775 1181.454,536.461 1214.570,533.727 1234.721 C 529.728 1264.190,508.623 1286.474,484.350 1286.856 C 479.318 1286.935,473.918 1288.216,472.350 1289.702 C 468.355 1293.490,424.954 1302.000,409.629 1302.000 C 400.226 1302.000,393.630 1299.631,384.382 1292.932 C 364.425 1278.475,348.809 1261.397,340.434 1244.869 C 332.924 1230.050,332.666 1227.738,332.770 1176.280 C 332.883 1119.890,334.620 1110.777,348.959 1091.313 C 359.254 1077.339,367.812 1074.253,396.637 1074.120 C 415.749 1074.032,427.129 1075.629,438.972 1080.060 " stroke="none" fill="black" fill-rule="evenodd"/></svg>