<!-- icon666.com - MILLIONS vector ICONS FREE --><svg id="svg8" viewBox="0 0 24 24" xmlns="http://www.w3.org/2000/svg" xmlns:svg="http://www.w3.org/2000/svg"><g id="g1218" transform="translate(-.002 -290.647)"><path id="path1206" d="m174.01562 41.996094c-4.39883 0-7.98633 3.587488-7.98632 7.986328 0 1.840669.63459 3.533578 1.6875 4.886719l-5.42774 5.427734a1 1 0 0 0 0 1.414063 1 1 0 0 0 1.41406 0l5.42774-5.427735c1.35279 1.051899 3.04507 1.685547 4.88476 1.685547 4.39884 0 7.98634-3.587498 7.98633-7.986328.00001-4.39884-3.58749-7.986328-7.98633-7.986328zm0 2c3.31796 0 5.98634 2.668368 5.98633 5.986328.00001 3.31795-2.66837 5.986328-5.98633 5.986328-3.31795 0-5.98632-2.668378-5.98632-5.986328 0-3.31796 2.66837-5.986328 5.98632-5.986328z" transform="translate(-159.997 250.647)" font-variant-ligatures="normal" font-variant-position="normal" font-variant-caps="normal" font-variant-numeric="normal" font-variant-alternates="normal" font-variant-east-asian="normal" font-feature-settings="normal" font-variation-settings="normal" text-indent="0" text-align="start" text-decoration-line="none" text-decoration-style="solid" text-decoration-color="rgb(0,0,0)" text-transform="none" text-orientation="mixed" white-space="normal" shape-padding="0" shape-margin="0" inline-size="0" isolation="auto" mix-blend-mode="normal" solid-color="rgb(0,0,0)" solid-opacity="1" vector-effect="none"></path></g></svg>